<svg id="svg" version="1.1" width="665" height="500" xmlns="http://www.w3.org/2000/svg" xmlns:xlink="http://www.w3.org/1999/xlink" style="display: block;"><g id="svgg"><path id="path0" d="M235.188 5.129 C 218.667 7.865,199.229 8.556,177.143 7.190 C 140.548 4.927,137.288 5.510,130.377 15.556 C 123.543 25.488,122.243 30.439,121.542 49.195 C 119.877 93.792,119.539 101.456,119.183 102.671 C 118.777 104.055,103.934 116.096,86.048 129.550 L 75.555 137.444 78.229 137.651 C 79.699 137.764,91.242 137.665,103.879 137.431 L 126.856 137.003 129.983 132.797 C 154.601 99.691,203.243 98.454,228.784 130.285 L 232.481 134.893 250.526 134.528 C 295.905 133.608,328.131 132.821,328.325 132.628 C 328.441 132.511,325.825 131.061,322.511 129.405 C 315.386 125.844,308.872 122.193,299.941 116.755 C 296.353 114.570,292.509 112.268,291.400 111.639 C 290.290 111.011,289.214 110.063,289.007 109.534 C 288.323 107.779,281.166 62.111,278.175 40.410 C 276.048 24.984,275.167 20.808,273.117 16.426 C 267.642 4.726,256.913 1.530,235.188 5.129 M174.436 121.464 C 164.286 122.920,152.966 128.414,147.068 134.748 L 145.263 136.685 163.910 136.365 C 179.748 136.094,182.942 135.888,185.114 134.999 C 187.495 134.024,187.749 134.021,188.771 134.946 C 190.432 136.449,214.724 135.934,213.666 134.418 C 208.278 126.697,186.982 119.665,174.436 121.464 M127.589 234.954 C 118.949 240.713,111.880 245.624,111.881 245.870 C 111.881 246.115,116.337 251.865,121.782 258.647 C 133.124 272.771,132.700 271.834,128.571 273.674 C 120.155 277.425,118.462 278.194,113.985 280.302 C 111.338 281.549,107.955 283.120,106.466 283.794 C 104.977 284.468,96.045 288.555,86.617 292.875 L 69.474 300.730 99.922 300.741 L 130.370 300.752 131.135 298.019 C 132.288 293.902,143.305 286.321,160.132 278.067 L 164.776 275.789 164.794 262.449 L 164.812 249.108 162.623 246.810 C 158.072 242.032,154.542 237.428,150.956 231.593 C 148.919 228.277,147.208 225.564,147.156 225.564 C 147.103 225.564,146.213 225.321,145.179 225.025 C 143.408 224.517,142.379 225.097,127.589 234.954 M258.379 230.226 C 245.296 253.036,223.817 265.540,200.752 263.772 L 195.489 263.368 195.489 267.181 L 195.489 270.994 201.036 272.319 C 213.637 275.329,217.628 285.285,212.011 299.699 C 211.622 300.698,214.710 300.750,271.966 300.711 C 317.792 300.680,331.969 300.505,330.827 299.982 C 330.000 299.603,326.552 297.998,323.165 296.414 C 319.777 294.830,316.890 293.534,316.747 293.534 C 316.605 293.534,313.963 292.345,310.876 290.893 C 300.254 285.895,295.613 283.753,285.714 279.279 C 270.718 272.502,270.126 272.215,270.100 271.726 C 270.086 271.475,274.442 265.824,279.779 259.167 C 285.116 252.510,289.514 246.660,289.553 246.167 C 289.611 245.442,262.301 226.321,261.030 226.197 C 260.853 226.180,259.659 227.992,258.379 230.226 " stroke="none" fill="#000000" fill-rule="evenodd"></path><path id="path1" d="M177.293 108.113 C 179.030 108.234,181.872 108.234,183.609 108.113 C 185.346 107.991,183.925 107.892,180.451 107.892 C 176.977 107.892,175.556 107.991,177.293 108.113 M164.009 109.779 C 162.410 110.218,160.921 110.769,160.701 111.003 C 160.481 111.236,160.842 111.275,161.504 111.088 C 162.165 110.901,163.857 110.451,165.263 110.088 C 166.669 109.725,167.820 109.302,167.820 109.150 C 167.820 108.777,167.406 108.845,164.009 109.779 M193.684 109.396 C 194.180 109.694,195.534 110.105,196.692 110.310 C 198.112 110.561,198.406 110.515,197.594 110.168 C 195.734 109.371,192.616 108.756,193.684 109.396 M204.175 112.812 C 205.468 113.778,206.569 113.979,206.060 113.155 C 205.880 112.864,205.120 112.472,204.370 112.283 C 203.056 111.952,203.049 111.970,204.175 112.812 M209.925 115.518 C 212.011 116.934,213.199 117.346,211.729 116.144 C 210.902 115.467,209.955 114.912,209.624 114.910 C 209.293 114.908,209.429 115.181,209.925 115.518 M144.060 119.451 L 142.256 121.002 144.211 119.708 C 145.286 118.996,146.165 118.297,146.165 118.155 C 146.165 117.704,145.911 117.861,144.060 119.451 M214.737 118.047 C 214.737 118.175,216.564 119.699,218.797 121.434 C 221.041 123.177,221.781 123.604,220.451 122.388 C 217.905 120.062,214.737 117.654,214.737 118.047 M172.504 120.794 C 171.937 121.019,175.539 121.203,180.509 121.203 C 185.479 121.203,188.920 121.027,188.156 120.812 C 186.303 120.290,173.809 120.276,172.504 120.794 M136.472 126.183 C 133.988 128.737,131.567 131.367,131.091 132.026 C 130.615 132.686,132.714 130.663,135.756 127.531 C 138.798 124.400,141.219 121.771,141.137 121.689 C 141.056 121.607,138.956 123.629,136.472 126.183 M162.406 123.655 L 160.902 124.561 162.406 124.163 C 164.589 123.584,166.019 122.742,164.812 122.746 C 164.316 122.748,163.233 123.157,162.406 123.655 M196.090 123.254 C 196.586 123.535,197.669 123.944,198.496 124.163 L 200.000 124.561 198.496 123.655 C 197.669 123.157,196.586 122.748,196.090 122.746 C 195.288 122.744,195.288 122.800,196.090 123.254 M156.992 126.015 C 156.165 126.488,155.759 126.875,156.090 126.875 C 156.421 126.875,157.368 126.488,158.195 126.015 C 159.023 125.542,159.429 125.155,159.098 125.155 C 158.767 125.155,157.820 125.542,156.992 126.015 M201.554 125.309 C 202.697 126.205,206.316 128.143,206.316 127.860 C 206.316 127.407,202.595 125.118,201.855 125.115 C 201.551 125.114,201.416 125.201,201.554 125.309 M208.421 129.412 C 214.665 134.191,219.977 140.363,223.548 146.988 C 224.642 149.017,225.543 150.428,225.550 150.125 C 225.601 148.093,218.583 137.777,214.747 134.244 C 212.271 131.964,208.486 128.940,207.519 128.470 C 207.023 128.228,207.429 128.653,208.421 129.412 M227.299 129.828 C 227.968 130.767,228.996 131.917,229.584 132.384 C 230.173 132.851,229.756 132.083,228.660 130.677 C 226.427 127.814,225.416 127.183,227.299 129.828 M149.884 130.655 C 148.500 131.718,147.368 132.814,147.368 133.091 C 147.368 133.367,148.586 132.576,150.075 131.331 C 152.591 129.228,153.079 128.722,152.591 128.722 C 152.485 128.722,151.267 129.592,149.884 130.655 M127.542 137.179 C 126.136 139.184,125.107 140.946,125.256 141.095 C 125.405 141.244,126.445 139.942,127.566 138.202 C 128.688 136.462,129.827 134.699,130.096 134.286 C 130.366 133.872,130.477 133.534,130.343 133.534 C 130.209 133.534,128.948 135.174,127.542 137.179 M187.167 135.142 C 189.336 135.716,188.861 137.125,185.996 138.617 C 184.435 139.430,183.374 140.107,183.639 140.122 C 184.210 140.156,187.657 138.445,188.709 137.606 C 189.712 136.806,188.581 134.713,187.197 134.807 C 186.261 134.870,186.258 134.901,187.167 135.142 M235.358 142.052 C 237.084 145.578,238.587 148.375,238.698 148.266 C 238.995 147.974,234.294 138.252,233.175 136.842 C 232.650 136.180,233.633 138.525,235.358 142.052 M143.439 137.002 C 141.722 138.223,135.817 147.675,135.084 150.376 C 134.859 151.203,135.735 149.923,137.030 147.532 C 138.325 145.140,140.513 141.689,141.892 139.863 C 144.404 136.536,144.598 136.178,143.439 137.002 M180.451 137.744 C 179.293 138.378,178.562 138.908,178.827 138.922 C 179.464 138.956,182.857 137.191,182.857 136.827 C 182.857 136.433,182.822 136.446,180.451 137.744 M174.286 140.494 C 173.376 140.988,172.632 141.504,172.632 141.642 C 172.632 142.074,176.226 140.661,176.578 140.091 C 177.061 139.309,176.187 139.463,174.286 140.494 M180.510 141.085 C 179.385 141.574,178.616 142.124,178.800 142.309 C 179.147 142.656,182.857 140.943,182.857 140.436 C 182.857 140.063,182.885 140.055,180.510 141.085 M167.820 143.759 C 166.000 144.721,164.707 145.520,164.946 145.536 C 165.509 145.572,172.030 142.488,172.030 142.185 C 172.030 141.693,171.004 142.077,167.820 143.759 M123.008 145.356 C 122.503 146.564,122.221 147.684,122.381 147.845 C 122.634 148.098,123.063 147.175,124.209 143.910 C 124.820 142.172,123.851 143.337,123.008 145.356 M173.684 144.402 C 172.444 145.057,171.429 145.727,171.429 145.891 C 171.429 146.159,176.180 143.939,176.792 143.385 C 177.484 142.758,175.677 143.350,173.684 144.402 M203.910 144.962 C 203.910 145.293,204.248 145.496,204.662 145.414 C 207.856 144.775,204.329 147.605,198.059 150.713 C 190.940 154.242,188.147 155.891,191.360 154.670 C 195.605 153.056,206.316 147.263,206.316 146.581 C 206.316 145.719,205.139 144.361,204.391 144.361 C 204.126 144.361,203.910 144.632,203.910 144.962 M157.844 148.529 C 154.564 150.160,152.043 151.513,152.243 151.537 C 152.808 151.602,164.211 146.194,164.211 145.860 C 164.211 145.376,164.054 145.442,157.844 148.529 M198.496 147.068 C 197.008 147.865,195.970 148.529,196.191 148.544 C 196.859 148.590,202.105 146.232,202.105 145.886 C 202.105 145.312,201.255 145.591,198.496 147.068 M167.279 147.392 C 165.824 148.053,164.782 148.742,164.964 148.924 C 165.147 149.107,166.608 148.573,168.212 147.739 C 171.688 145.930,171.035 145.688,167.279 147.392 M193.083 149.774 C 191.925 150.408,191.194 150.938,191.458 150.952 C 192.096 150.986,195.489 149.222,195.489 148.857 C 195.489 148.463,195.454 148.476,193.083 149.774 M161.053 150.417 C 159.812 151.072,158.797 151.742,158.797 151.906 C 158.797 152.174,163.548 149.954,164.160 149.400 C 164.853 148.773,163.046 149.365,161.053 150.417 M238.839 149.294 C 238.763 150.053,240.573 156.564,240.963 156.933 C 241.172 157.131,241.142 156.356,240.896 155.210 C 240.408 152.931,238.907 148.617,238.839 149.294 M120.436 152.628 C 119.569 155.600,118.849 159.780,119.271 159.396 C 119.709 158.997,121.592 150.865,121.311 150.584 C 121.192 150.465,120.798 151.385,120.436 152.628 M186.466 152.782 C 184.647 153.743,183.338 154.542,183.559 154.558 C 184.096 154.596,188.939 152.415,190.075 151.624 C 191.864 150.378,189.705 151.071,186.466 152.782 M226.602 153.878 C 227.146 155.579,227.703 156.858,227.840 156.721 C 228.165 156.397,226.773 152.044,226.117 151.333 C 225.840 151.032,226.058 152.178,226.602 153.878 M149.173 152.782 C 148.015 153.416,147.284 153.946,147.549 153.960 C 148.186 153.993,151.579 152.229,151.579 151.864 C 151.579 151.471,151.544 151.484,149.173 152.782 M133.324 154.999 C 132.810 156.591,132.240 158.977,132.057 160.301 C 131.874 161.624,132.377 160.406,133.175 157.594 C 134.744 152.067,134.846 150.278,133.324 154.999 M154.714 153.491 C 153.296 154.179,152.254 154.861,152.400 155.006 C 152.545 155.152,153.976 154.588,155.580 153.754 C 159.083 151.931,158.374 151.716,154.714 153.491 M218.674 154.833 C 219.817 155.669,219.817 155.700,218.639 157.026 L 217.444 158.371 218.797 157.660 C 220.358 156.841,220.595 154.886,219.199 154.350 C 217.638 153.751,217.442 153.932,218.674 154.833 M144.511 154.985 C 143.617 155.346,143.508 157.367,144.354 157.890 C 144.696 158.102,144.795 157.858,144.587 157.317 C 144.389 156.799,144.560 155.973,144.969 155.481 C 145.751 154.538,145.715 154.499,144.511 154.985 M180.451 155.789 C 179.293 156.423,178.562 156.953,178.827 156.967 C 179.464 157.001,182.857 155.237,182.857 154.872 C 182.857 154.478,182.822 154.492,180.451 155.789 M211.128 157.293 C 208.316 158.749,206.209 159.953,206.447 159.970 C 206.910 160.002,216.560 155.370,217.050 154.880 C 217.898 154.032,215.693 154.930,211.128 157.293 M148.722 156.409 C 147.316 157.034,146.165 157.677,146.165 157.839 C 146.165 158.232,150.521 156.428,151.248 155.734 C 152.017 154.999,151.709 155.081,148.722 156.409 M186.316 156.432 C 185.075 157.087,184.060 157.757,184.060 157.921 C 184.060 158.189,188.811 155.969,189.424 155.415 C 190.116 154.788,188.309 155.380,186.316 156.432 M169.624 160.902 C 166.812 162.358,164.694 163.562,164.918 163.579 C 165.379 163.613,175.034 159.001,175.522 158.513 C 176.394 157.641,174.237 158.515,169.624 160.902 M179.910 159.422 C 178.455 160.083,177.414 160.772,177.596 160.954 C 177.778 161.137,179.240 160.603,180.843 159.769 C 184.319 157.960,183.667 157.718,179.910 159.422 M210.609 160.988 C 207.512 162.466,205.116 163.812,205.283 163.980 C 205.451 164.148,208.256 162.929,211.516 161.271 C 218.856 157.539,218.241 157.347,210.609 160.988 M118.648 162.707 C 118.655 164.030,118.778 164.501,118.922 163.752 C 119.066 163.004,119.060 161.921,118.910 161.346 C 118.759 160.771,118.641 161.383,118.648 162.707 M201.203 162.066 C 199.549 162.862,198.376 163.535,198.597 163.562 C 199.231 163.637,204.511 161.282,204.511 160.924 C 204.511 160.469,204.533 160.462,201.203 162.066 M173.684 162.447 C 172.444 163.102,171.429 163.772,171.429 163.936 C 171.429 164.204,176.180 161.984,176.792 161.430 C 177.484 160.803,175.677 161.395,173.684 162.447 M228.872 169.990 C 228.872 174.463,229.048 177.497,229.263 176.731 C 229.785 174.874,229.798 164.182,229.281 162.883 C 229.056 162.318,228.872 165.517,228.872 169.990 M242.036 169.624 C 242.036 173.759,242.132 175.451,242.250 173.383 C 242.367 171.316,242.367 167.932,242.250 165.865 C 242.132 163.797,242.036 165.489,242.036 169.624 M157.844 166.574 C 154.564 168.205,152.043 169.559,152.243 169.582 C 152.808 169.648,164.211 164.239,164.211 163.905 C 164.211 163.421,164.054 163.487,157.844 166.574 M194.887 165.113 C 193.398 165.910,192.394 166.574,192.656 166.589 C 193.294 166.626,197.895 164.262,197.895 163.898 C 197.895 163.499,197.920 163.489,194.887 165.113 M167.281 165.469 C 165.827 166.114,164.785 166.790,164.966 166.971 C 165.148 167.153,166.608 166.618,168.212 165.784 C 171.654 163.993,171.060 163.792,167.281 165.469 M200.752 165.758 C 198.420 167.023,198.684 167.459,201.053 166.255 C 203.320 165.102,203.721 164.803,202.957 164.836 C 202.654 164.849,201.662 165.264,200.752 165.758 M131.334 169.925 C 131.336 172.571,131.442 173.579,131.569 172.165 C 131.696 170.750,131.694 168.584,131.565 167.353 C 131.436 166.121,131.332 167.278,131.334 169.925 M185.513 169.582 C 182.233 171.213,179.744 172.566,179.983 172.589 C 180.600 172.649,191.880 167.265,191.880 166.910 C 191.880 166.429,191.718 166.497,185.513 169.582 M194.950 168.476 C 193.496 169.121,192.454 169.798,192.635 169.979 C 192.817 170.160,194.277 169.626,195.881 168.791 C 199.323 167.000,198.730 166.799,194.950 168.476 M118.034 169.624 C 118.034 170.782,118.158 171.256,118.309 170.677 C 118.461 170.098,118.461 169.150,118.309 168.571 C 118.158 167.992,118.034 168.466,118.034 169.624 M160.451 168.765 C 158.119 170.030,158.383 170.467,160.752 169.262 C 163.019 168.109,163.421 167.810,162.657 167.844 C 162.353 167.857,161.361 168.272,160.451 168.765 M148.722 170.845 C 147.316 171.470,146.165 172.131,146.165 172.314 C 146.165 172.747,150.502 170.938,151.248 170.194 C 152.008 169.437,151.732 169.508,148.722 170.845 M154.683 171.526 C 153.247 172.185,152.206 172.857,152.368 173.020 C 152.531 173.183,153.976 172.633,155.580 171.799 C 159.035 170.001,158.414 169.812,154.683 171.526 M188.722 171.470 C 187.481 172.124,186.466 172.795,186.466 172.959 C 186.466 173.227,191.217 171.007,191.830 170.452 C 192.522 169.826,190.715 170.417,188.722 171.470 M218.496 172.680 C 219.075 173.017,219.549 173.588,219.549 173.949 C 219.549 174.309,219.075 174.987,218.496 175.456 C 217.546 176.224,217.576 176.243,218.797 175.651 C 220.356 174.895,220.599 172.932,219.199 172.395 C 217.731 171.832,217.324 171.997,218.496 172.680 M143.424 173.485 C 142.783 173.954,142.392 174.472,142.557 174.636 C 142.722 174.800,143.496 174.416,144.277 173.783 C 145.911 172.459,145.178 172.202,143.424 173.485 M210.526 175.639 C 207.383 177.260,205.006 178.599,205.242 178.616 C 205.699 178.648,216.568 173.407,217.056 172.919 C 217.918 172.057,215.606 173.020,210.526 175.639 M175.338 174.477 C 174.346 175.113,173.750 175.634,174.015 175.636 C 174.677 175.640,178.045 173.871,178.045 173.518 C 178.045 172.996,177.162 173.309,175.338 174.477 M182.318 174.491 C 180.864 175.136,179.823 175.813,180.004 175.994 C 180.185 176.175,181.646 175.641,183.249 174.806 C 186.692 173.015,186.098 172.814,182.318 174.491 M148.120 174.731 C 147.045 175.199,146.165 175.724,146.165 175.898 C 146.165 176.270,149.212 175.032,150.045 174.322 C 150.835 173.649,150.397 173.742,148.120 174.731 M167.218 178.346 C 164.406 179.801,162.311 181.006,162.563 181.022 C 163.027 181.053,172.674 176.399,173.166 175.907 C 173.989 175.084,171.732 176.009,167.218 178.346 M175.489 177.788 C 174.579 178.281,173.835 178.806,173.835 178.954 C 173.835 179.289,176.941 177.989,177.714 177.329 C 178.657 176.526,177.300 176.805,175.489 177.788 M210.001 179.326 C 207.231 180.635,205.093 181.835,205.251 181.992 C 205.408 182.150,207.945 181.070,210.889 179.594 C 217.503 176.275,216.864 176.082,210.001 179.326 M169.023 181.053 C 167.203 182.014,165.985 182.800,166.316 182.800 C 166.647 182.800,168.406 182.014,170.226 181.053 C 172.045 180.091,173.263 179.305,172.932 179.305 C 172.602 179.305,170.842 180.091,169.023 181.053 M200.301 180.451 C 199.143 181.085,198.407 181.615,198.666 181.629 C 199.409 181.669,203.308 179.947,203.308 179.580 C 203.308 179.016,202.489 179.253,200.301 180.451 M119.442 181.955 C 119.892 185.231,121.019 189.310,121.270 188.571 C 121.383 188.241,120.943 186.075,120.293 183.759 C 119.585 181.235,119.244 180.512,119.442 181.955 M132.669 181.943 C 132.872 183.259,133.410 185.019,133.864 185.852 C 134.996 187.933,134.922 187.372,133.509 183.158 C 132.534 180.251,132.371 180.014,132.669 181.943 M194.887 183.158 C 193.398 183.955,192.394 184.620,192.656 184.634 C 193.294 184.671,197.895 182.307,197.895 181.943 C 197.895 181.544,197.920 181.534,194.887 183.158 M153.985 184.662 C 151.504 185.952,149.639 187.022,149.840 187.038 C 150.414 187.084,159.398 182.855,159.398 182.538 C 159.398 181.972,158.410 182.360,153.985 184.662 M226.355 186.004 C 225.633 188.066,225.133 189.845,225.244 189.956 C 225.549 190.261,228.041 183.372,227.842 182.774 C 227.747 182.488,227.078 183.942,226.355 186.004 M200.752 183.803 C 198.420 185.068,198.684 185.505,201.053 184.300 C 203.320 183.147,203.721 182.848,202.957 182.881 C 202.654 182.894,201.662 183.309,200.752 183.803 M239.719 186.185 C 239.173 188.065,238.838 189.715,238.975 189.852 C 239.112 189.989,239.663 188.555,240.201 186.667 C 240.738 184.778,241.073 183.128,240.945 183.000 C 240.817 182.872,240.266 184.306,239.719 186.185 M162.070 184.342 C 161.428 184.827,161.189 185.234,161.539 185.244 C 161.889 185.255,162.702 184.866,163.344 184.380 C 163.986 183.894,164.225 183.488,163.874 183.478 C 163.524 183.467,162.712 183.856,162.070 184.342 M184.662 187.970 C 181.850 189.425,179.714 190.630,179.917 190.646 C 180.476 190.692,190.677 185.846,190.677 185.535 C 190.677 184.974,189.638 185.394,184.662 187.970 M194.984 186.563 C 193.548 187.222,192.506 187.895,192.669 188.058 C 192.832 188.220,194.277 187.671,195.881 186.836 C 199.336 185.039,198.715 184.850,194.984 186.563 M152.932 188.599 C 147.045 191.387,145.165 192.843,150.526 190.462 C 154.849 188.543,159.830 185.916,159.098 185.942 C 158.767 185.954,155.992 187.150,152.932 188.599 M145.978 188.634 C 144.065 189.671,143.897 192.100,145.726 192.263 C 146.472 192.330,146.517 192.274,145.876 192.075 C 144.944 191.786,144.564 189.474,145.449 189.474 C 145.717 189.474,146.461 189.076,147.103 188.591 C 148.608 187.453,148.123 187.471,145.978 188.634 M121.812 190.827 C 122.584 193.513,127.541 203.048,129.081 204.812 C 130.295 206.202,130.440 206.271,129.711 205.113 C 127.386 201.416,123.995 194.945,123.014 192.331 C 121.915 189.403,121.114 188.401,121.812 190.827 M135.338 189.704 C 135.338 190.350,137.128 193.684,137.475 193.684 C 137.640 193.684,137.328 192.805,136.781 191.729 C 135.665 189.534,135.338 189.076,135.338 189.704 M183.459 192.180 C 180.647 193.636,178.617 194.827,178.947 194.827 C 179.278 194.827,181.850 193.636,184.662 192.180 C 187.474 190.725,189.504 189.534,189.173 189.534 C 188.842 189.534,186.271 190.725,183.459 192.180 M176.241 192.180 C 174.752 192.978,173.748 193.642,174.009 193.657 C 174.648 193.694,179.248 191.330,179.248 190.965 C 179.248 190.567,179.273 190.557,176.241 192.180 M223.545 192.632 L 222.469 194.586 223.716 193.166 C 224.793 191.940,225.338 190.677,224.791 190.677 C 224.697 190.677,224.136 191.556,223.545 192.632 M236.692 194.679 C 236.187 195.888,235.913 197.015,236.082 197.185 C 236.252 197.355,236.391 197.346,236.391 197.166 C 236.391 196.986,236.801 195.858,237.301 194.660 C 237.802 193.462,238.076 192.481,237.911 192.481 C 237.745 192.481,237.197 193.470,236.692 194.679 M201.504 194.887 C 197.337 197.088,198.061 197.237,202.459 195.083 C 206.268 193.218,208.089 193.778,205.971 196.164 C 204.815 197.465,204.815 197.467,206.165 196.758 C 207.726 195.939,207.964 193.984,206.567 193.448 C 205.225 192.933,205.178 192.946,201.504 194.887 M166.617 196.692 C 163.474 198.312,161.086 199.652,161.312 199.669 C 161.865 199.710,173.233 194.236,173.233 193.928 C 173.233 193.392,172.095 193.867,166.617 196.692 M138.589 195.940 C 139.803 198.235,146.234 205.846,146.628 205.453 C 146.804 205.276,145.729 203.827,144.239 202.234 C 142.748 200.640,140.776 198.200,139.857 196.811 C 137.956 193.939,137.286 193.479,138.589 195.940 M219.425 198.868 C 217.868 200.979,216.785 202.699,217.019 202.689 C 217.545 202.668,222.785 195.509,222.478 195.230 C 222.356 195.120,220.982 196.756,219.425 198.868 M170.827 198.195 C 168.015 199.651,165.897 200.855,166.121 200.872 C 166.582 200.906,176.237 196.294,176.725 195.807 C 177.597 194.934,175.440 195.808,170.827 198.195 M194.286 198.496 C 193.128 199.130,192.397 199.660,192.661 199.674 C 193.299 199.707,196.692 197.943,196.692 197.579 C 196.692 197.185,196.657 197.198,194.286 198.496 M199.699 199.398 C 198.211 200.196,197.263 200.848,197.594 200.848 C 197.925 200.848,199.414 200.196,200.902 199.398 C 202.391 198.601,203.338 197.949,203.008 197.949 C 202.677 197.949,201.188 198.601,199.699 199.398 M233.638 200.752 C 230.135 206.765,223.553 214.512,219.585 217.290 C 218.778 217.856,218.266 218.466,218.447 218.647 C 218.961 219.161,227.555 210.601,230.224 206.917 C 232.874 203.260,236.073 197.895,235.603 197.895 C 235.438 197.895,234.553 199.180,233.638 200.752 M186.917 201.842 C 182.822 203.944,182.559 204.238,183.222 205.966 C 183.723 207.270,185.081 207.121,188.271 205.414 C 191.640 203.609,191.009 203.465,187.325 205.196 C 185.411 206.096,184.398 206.293,183.955 205.850 C 182.957 204.852,183.897 203.962,188.032 201.987 C 191.605 200.280,192.544 199.656,191.429 199.729 C 191.180 199.745,189.150 200.696,186.917 201.842 M157.343 201.092 C 155.814 202.210,156.342 204.187,158.202 204.309 C 159.530 204.396,159.546 204.375,158.346 204.117 C 157.602 203.957,156.992 203.472,156.992 203.039 C 156.992 202.606,157.602 201.827,158.346 201.308 C 159.090 200.789,159.413 200.350,159.062 200.332 C 158.712 200.315,157.938 200.657,157.343 201.092 M161.654 202.449 C 160.744 202.943,160.000 203.459,160.000 203.597 C 160.000 204.029,163.594 202.616,163.946 202.046 C 164.430 201.264,163.555 201.418,161.654 202.449 M193.348 202.387 C 192.706 202.873,192.467 203.279,192.817 203.289 C 193.168 203.300,193.980 202.911,194.622 202.425 C 195.264 201.939,195.503 201.533,195.153 201.523 C 194.802 201.512,193.990 201.901,193.348 202.387 M212.410 206.366 C 210.634 208.022,207.120 210.583,204.603 212.057 C 202.085 213.531,200.257 214.737,200.541 214.737 C 202.410 214.737,215.940 205.118,215.940 203.790 C 215.940 203.079,215.912 203.100,212.410 206.366 M147.927 206.619 C 148.814 208.032,155.789 212.907,155.789 212.115 C 155.789 211.957,154.789 211.209,153.566 210.453 C 152.343 209.698,150.405 208.256,149.258 207.249 C 147.938 206.090,147.450 205.859,147.927 206.619 M131.605 208.548 C 133.362 211.015,142.520 219.547,144.903 220.936 C 147.714 222.575,147.139 221.602,144.211 219.764 C 142.805 218.881,139.091 215.573,135.959 212.412 C 132.827 209.251,130.868 207.512,131.605 208.548 M156.391 212.626 C 156.391 213.037,160.074 214.863,160.349 214.588 C 160.480 214.458,159.642 213.901,158.489 213.351 C 157.335 212.800,156.391 212.474,156.391 212.626 M163.929 216.214 C 164.932 216.668,166.826 217.201,168.139 217.399 L 170.526 217.760 168.009 216.925 C 166.625 216.466,164.730 215.932,163.799 215.739 L 162.105 215.388 163.929 216.214 M193.083 216.883 L 190.977 217.734 193.083 217.369 C 195.469 216.956,197.673 215.956,196.090 216.004 C 195.594 216.019,194.241 216.414,193.083 216.883 M178.214 218.789 C 179.795 218.913,182.231 218.912,183.627 218.785 C 185.023 218.659,183.729 218.558,180.752 218.559 C 177.774 218.561,176.632 218.664,178.214 218.789 M215.639 220.504 L 213.835 222.054 215.789 220.761 C 216.865 220.049,217.744 219.350,217.744 219.207 C 217.744 218.757,217.490 218.914,215.639 220.504 M147.368 222.194 C 147.368 222.701,151.645 225.097,151.970 224.772 C 152.150 224.592,151.188 223.879,149.833 223.188 C 148.477 222.496,147.368 222.049,147.368 222.194 M210.317 223.528 C 208.713 224.363,207.542 225.186,207.714 225.358 C 208.021 225.665,213.534 222.673,213.534 222.198 C 213.534 221.854,213.542 221.850,210.317 223.528 M155.997 226.837 C 157.268 227.508,158.448 227.918,158.618 227.748 C 158.912 227.454,154.857 225.535,154.062 225.590 C 153.854 225.605,154.725 226.166,155.997 226.837 M203.990 226.546 C 202.877 227.031,202.107 227.570,202.279 227.743 C 202.452 227.916,203.634 227.508,204.906 226.837 C 207.572 225.430,206.979 225.242,203.990 226.546 M161.203 228.742 C 161.203 229.192,169.631 231.171,169.995 230.807 C 170.167 230.635,168.874 230.186,167.120 229.810 C 165.366 229.433,163.317 228.972,162.567 228.783 C 161.817 228.595,161.203 228.577,161.203 228.742 M193.985 229.825 C 191.268 230.547,190.628 230.847,192.180 230.671 C 194.699 230.386,200.663 228.685,199.098 228.698 C 198.602 228.702,196.301 229.209,193.985 229.825 M187.469 231.378 C 186.458 232.389,187.042 244.673,188.120 245.084 C 188.964 245.405,189.024 245.335,188.421 244.727 C 187.410 243.709,187.385 232.706,188.391 231.699 C 188.823 231.267,188.863 230.977,188.491 230.977 C 188.149 230.977,187.689 231.158,187.469 231.378 M166.359 245.156 C 165.552 245.962,165.414 248.211,165.414 260.494 C 165.414 275.396,165.496 275.864,167.820 274.237 C 168.526 273.743,168.428 273.688,167.368 273.986 L 166.015 274.367 166.015 260.265 C 166.015 244.316,165.802 245.004,170.845 244.659 L 174.135 244.433 170.720 244.322 C 168.300 244.243,167.028 244.486,166.359 245.156 M193.083 245.250 C 194.739 245.881,194.869 246.854,194.878 258.759 L 194.887 270.600 192.932 270.867 L 190.977 271.134 193.083 271.056 L 195.188 270.977 195.351 258.724 C 195.518 246.152,195.298 244.756,193.159 244.860 C 192.338 244.899,192.326 244.962,193.083 245.250 M172.632 271.713 C 172.135 271.900,171.083 272.292,170.293 272.584 C 169.502 272.877,168.989 273.250,169.152 273.413 C 169.315 273.576,170.639 273.181,172.093 272.536 C 174.471 271.481,174.871 270.870,172.632 271.713 " stroke="none" fill="#d6d6d6" fill-rule="evenodd"></path><path id="path2" d="M169.925 108.892 C 150.030 112.786,130.646 127.738,124.177 144.180 C 123.683 145.438,123.018 146.930,122.700 147.497 C 122.382 148.064,121.386 151.447,120.487 155.016 C 113.489 182.768,127.115 212.151,152.782 224.661 C 155.263 225.870,157.753 227.103,158.315 227.400 C 159.618 228.090,171.246 230.977,172.721 230.977 C 173.740 230.977,173.835 231.564,173.835 237.895 L 173.835 244.812 170.647 244.812 C 165.890 244.812,166.015 244.392,166.015 260.311 L 166.015 274.367 167.368 273.952 C 168.113 273.724,168.992 273.338,169.323 273.094 C 171.663 271.373,176.283 270.677,185.370 270.677 L 194.887 270.677 194.878 258.797 C 194.868 245.300,194.893 245.386,190.914 245.144 C 189.295 245.045,187.758 244.930,187.499 244.888 C 187.240 244.846,187.105 241.776,187.198 238.065 L 187.368 231.318 194.055 229.751 C 200.900 228.146,202.313 227.616,209.624 223.910 C 225.475 215.875,237.778 198.958,241.228 180.451 C 241.889 176.904,241.896 162.174,241.237 159.098 C 239.463 150.811,234.995 139.671,231.746 135.432 C 219.727 119.755,207.995 112.164,190.677 108.859 C 187.354 108.225,173.218 108.247,169.925 108.892 M191.305 121.574 C 208.944 125.636,224.809 140.901,227.971 156.856 C 228.347 158.751,228.906 161.280,229.214 162.476 C 231.144 169.970,227.606 188.989,223.399 193.732 C 222.935 194.254,222.556 194.906,222.556 195.181 C 222.556 195.455,221.496 197.085,220.200 198.802 C 189.426 239.560,125.463 213.815,131.672 163.169 C 133.340 149.563,143.211 133.627,153.191 128.427 C 154.455 127.768,155.624 127.050,155.789 126.831 C 159.397 122.053,180.086 118.991,191.305 121.574 M177.744 139.527 C 173.113 141.806,165.805 145.342,161.504 147.384 C 157.203 149.427,151.706 152.038,149.287 153.187 C 146.869 154.337,144.735 155.681,144.546 156.175 C 143.717 158.335,145.550 158.060,151.601 155.115 C 159.621 151.210,167.486 147.415,179.385 141.707 C 186.612 138.241,188.762 136.953,188.493 136.254 C 187.923 134.767,186.601 135.170,177.744 139.527 M201.486 146.234 C 200.338 146.854,196.015 148.952,191.880 150.896 C 187.744 152.841,181.113 155.994,177.143 157.902 C 165.723 163.391,154.101 168.951,148.835 171.444 C 143.392 174.020,142.101 175.114,143.315 176.121 C 143.886 176.595,145.579 176.045,149.788 174.016 C 152.924 172.505,158.872 169.648,163.008 167.667 C 196.637 151.553,205.414 147.115,205.414 146.223 C 205.414 144.962,203.834 144.967,201.486 146.234 M215.940 155.501 C 215.113 155.986,210.917 158.043,206.617 160.071 C 202.316 162.100,194.872 165.652,190.075 167.966 C 176.022 174.743,168.626 178.292,160.301 182.254 C 145.307 189.389,144.962 189.580,144.962 190.759 C 144.962 192.609,143.864 193.023,162.707 184.066 C 166.015 182.493,172.511 179.377,177.143 177.141 C 181.774 174.905,188.271 171.786,191.579 170.210 C 194.887 168.634,201.857 165.286,207.067 162.770 C 212.277 160.254,216.769 158.195,217.049 158.195 C 217.951 158.195,219.680 155.886,219.272 155.226 C 218.738 154.362,217.740 154.445,215.940 155.501 M215.940 173.537 C 215.113 174.026,210.917 176.092,206.617 178.128 C 202.316 180.164,195.278 183.519,190.977 185.584 C 186.677 187.649,178.286 191.667,172.331 194.514 C 158.529 201.111,157.334 201.773,157.099 202.943 C 156.886 204.003,159.299 204.333,160.331 203.385 C 160.645 203.096,165.504 200.687,171.128 198.032 C 182.963 192.443,193.518 187.410,205.414 181.682 C 210.045 179.451,215.134 177.013,216.723 176.263 C 218.677 175.341,219.550 174.585,219.422 173.923 C 219.170 172.610,217.769 172.455,215.940 173.537 M203.308 194.576 C 202.481 195.049,197.835 197.332,192.982 199.649 C 188.130 201.966,183.972 204.167,183.742 204.540 C 182.997 205.746,184.479 206.610,186.003 205.858 C 188.996 204.381,200.746 198.886,203.016 197.903 C 205.728 196.727,207.214 195.252,206.633 194.312 C 206.110 193.466,205.111 193.545,203.308 194.576 " stroke="none" fill="#ffffff" fill-rule="evenodd"></path><path id="path3" d="M240.602 3.620 C 232.964 4.866,229.182 5.623,229.419 5.860 C 229.558 5.999,233.417 5.519,237.994 4.793 C 261.963 0.989,272.473 6.925,276.085 26.304 C 276.687 29.536,277.205 31.473,277.237 30.608 C 277.598 20.583,270.901 8.791,262.747 5.094 C 258.544 3.189,247.682 2.466,240.602 3.620 M139.702 6.599 C 134.442 8.987,128.639 15.437,126.023 21.805 C 124.689 25.052,125.524 24.586,127.102 21.203 C 128.967 17.206,131.807 13.245,134.650 10.676 C 139.081 6.674,140.143 6.350,150.075 5.978 L 159.098 5.640 150.677 5.540 C 143.506 5.455,141.877 5.612,139.702 6.599 M167.820 6.741 C 176.722 7.582,220.146 7.634,224.662 6.810 C 227.807 6.235,227.344 6.200,221.053 6.534 C 211.778 7.027,188.921 7.025,173.534 6.531 C 163.530 6.210,162.567 6.245,167.820 6.741 M123.367 27.951 C 122.673 29.806,122.124 31.652,122.147 32.053 C 122.170 32.454,122.857 31.055,123.672 28.944 C 124.488 26.833,125.037 24.987,124.892 24.842 C 124.747 24.697,124.061 26.096,123.367 27.951 M121.701 36.992 C 121.704 39.308,121.813 40.182,121.943 38.934 C 122.073 37.686,122.071 35.791,121.938 34.723 C 121.805 33.656,121.698 34.677,121.701 36.992 M277.962 37.724 C 277.870 39.545,279.707 52.544,280.111 52.926 C 280.289 53.095,280.243 51.338,280.007 49.023 C 279.473 43.774,278.053 35.928,277.962 37.724 M120.441 60.150 C 119.677 78.612,119.506 87.632,119.927 87.168 C 120.270 86.791,121.683 45.691,121.425 43.609 C 121.301 42.617,120.859 50.060,120.441 60.150 M281.194 61.053 C 281.863 66.699,283.149 73.826,283.233 72.349 C 283.330 70.630,281.488 58.140,281.078 57.744 C 280.907 57.579,280.959 59.068,281.194 61.053 M284.128 79.850 C 285.293 88.575,285.934 92.245,286.171 91.548 C 286.484 90.627,284.497 76.992,284.051 76.992 C 283.883 76.992,283.918 78.278,284.128 79.850 M119.225 95.723 C 119.070 103.535,119.926 102.439,104.636 114.410 C 103.492 115.306,99.616 118.346,96.022 121.166 C 92.428 123.986,86.134 128.773,82.037 131.804 C 74.624 137.286,73.905 138.001,75.338 138.456 C 78.091 139.330,126.559 137.754,127.462 136.760 C 128.193 135.956,128.206 135.863,127.519 136.371 C 126.599 137.049,75.789 138.256,75.789 137.599 C 75.789 137.424,80.459 133.765,86.165 129.469 C 103.209 116.638,118.766 104.063,119.268 102.710 C 119.527 102.013,119.652 98.715,119.545 95.383 L 119.351 89.323 119.225 95.723 M286.316 93.139 C 286.316 93.776,287.614 102.522,288.450 107.521 C 288.773 109.452,290.750 111.883,291.993 111.877 C 292.344 111.875,291.909 111.266,291.026 110.523 C 289.592 109.317,289.280 108.304,288.113 101.053 C 286.950 93.823,286.316 91.031,286.316 93.139 M176.992 107.512 C 178.895 107.632,182.008 107.632,183.910 107.512 C 185.812 107.393,184.256 107.295,180.451 107.295 C 176.647 107.295,175.090 107.393,176.992 107.512 M168.120 108.271 C 165.619 108.907,168.081 108.935,171.128 108.305 C 173.151 107.887,173.247 107.808,171.729 107.810 C 170.737 107.811,169.113 108.018,168.120 108.271 M187.719 107.888 C 187.857 108.009,189.459 108.262,191.278 108.450 C 193.414 108.671,194.053 108.615,193.083 108.291 C 191.592 107.794,187.237 107.467,187.719 107.888 M157.895 111.245 C 154.725 112.745,155.333 112.776,159.098 111.306 C 160.752 110.660,161.699 110.126,161.203 110.119 C 160.707 110.112,159.218 110.619,157.895 111.245 M200.640 110.925 C 203.676 112.247,205.603 112.570,203.008 111.321 C 201.684 110.685,200.195 110.155,199.699 110.143 C 199.203 110.132,199.627 110.484,200.640 110.925 M293.148 112.343 C 293.563 113.015,308.892 122.302,312.180 123.873 L 313.684 124.592 312.180 123.362 C 311.353 122.686,310.495 122.126,310.272 122.119 C 310.050 122.111,306.937 120.304,303.355 118.102 C 293.407 111.988,292.671 111.573,293.148 112.343 M144.606 118.423 C 142.321 120.037,139.774 122.128,138.947 123.068 C 137.872 124.291,138.167 124.145,139.981 122.558 C 141.376 121.337,144.015 119.344,145.846 118.129 C 148.826 116.150,149.608 115.489,148.967 115.489 C 148.853 115.489,146.891 116.809,144.606 118.423 M174.586 121.317 C 175.165 121.468,176.113 121.468,176.692 121.317 C 177.271 121.166,176.797 121.042,175.639 121.042 C 174.481 121.042,174.008 121.166,174.586 121.317 M189.774 122.024 C 190.436 122.314,191.925 122.722,193.083 122.932 C 194.528 123.195,194.811 123.149,193.985 122.788 C 193.323 122.498,191.835 122.090,190.677 121.880 C 189.231 121.618,188.949 121.663,189.774 122.024 M220.151 121.584 C 220.152 121.705,222.102 123.699,224.484 126.015 C 226.867 128.331,227.986 129.243,226.971 128.043 C 225.157 125.895,220.149 121.153,220.151 121.584 M166.099 122.795 C 164.988 123.115,164.195 123.494,164.338 123.636 C 164.481 123.779,165.796 123.520,167.261 123.060 C 170.252 122.121,169.241 121.891,166.099 122.795 M314.286 124.986 C 314.617 125.329,318.000 127.190,321.805 129.121 L 328.722 132.632 320.000 132.958 L 311.278 133.284 320.451 133.409 C 331.896 133.565,332.025 133.210,322.249 128.432 C 313.586 124.199,313.487 124.156,314.286 124.986 M158.045 126.058 C 155.713 127.324,155.977 127.760,158.346 126.555 C 160.613 125.402,161.015 125.103,160.251 125.137 C 159.947 125.150,158.955 125.565,158.045 126.058 M147.107 134.286 C 122.610 158.920,128.578 198.291,159.068 213.193 C 205.074 235.678,249.652 180.916,218.775 139.847 C 216.358 136.632,212.720 132.787,213.710 134.495 C 213.975 134.951,211.837 135.277,206.802 135.548 C 194.405 136.214,190.010 136.068,188.771 134.946 C 187.749 134.021,187.495 134.024,185.114 134.999 C 182.932 135.892,179.817 136.086,163.910 136.323 L 145.263 136.600 148.819 133.262 C 150.775 131.427,152.165 129.925,151.909 129.925 C 151.653 129.925,149.492 131.887,147.107 134.286 M208.932 130.380 C 209.167 130.760,210.212 131.679,211.255 132.421 C 212.297 133.163,212.957 133.459,212.722 133.079 C 212.487 132.698,211.442 131.780,210.400 131.038 C 209.357 130.295,208.697 130.000,208.932 130.380 M129.323 133.534 C 128.617 134.526,128.174 135.338,128.339 135.338 C 128.505 135.338,129.218 134.526,129.925 133.534 C 130.632 132.541,131.074 131.729,130.909 131.729 C 130.744 131.729,130.030 132.541,129.323 133.534 M231.931 134.755 C 240.689 145.124,245.009 167.403,241.322 183.187 C 235.656 207.448,216.048 226.570,192.331 230.963 L 188.271 231.715 188.271 237.963 L 188.271 244.211 190.934 244.211 C 195.250 244.211,195.489 244.761,195.489 254.726 L 195.489 263.351 200.534 263.771 C 223.525 265.686,245.276 253.072,258.379 230.226 C 259.659 227.992,260.853 226.180,261.030 226.197 C 262.301 226.321,289.611 245.442,289.553 246.167 C 289.514 246.660,285.116 252.510,279.779 259.167 C 268.699 272.987,269.270 271.789,272.957 273.478 C 287.986 280.363,291.949 282.086,292.191 281.844 C 292.346 281.689,290.614 280.729,288.342 279.711 C 268.640 270.879,269.782 272.185,275.651 265.204 C 278.043 262.359,280.677 259.136,281.504 258.040 C 282.331 256.945,284.866 253.737,287.138 250.912 L 291.269 245.774 289.781 244.541 C 288.962 243.863,286.697 242.308,284.748 241.085 C 279.832 238.002,265.316 228.271,263.308 226.713 C 261.179 225.060,261.203 224.808,264.048 218.849 C 265.365 216.091,267.463 210.628,268.710 206.708 C 270.851 199.980,271.100 199.519,273.175 198.455 C 278.414 195.768,281.342 189.824,285.449 173.534 C 289.815 156.217,288.495 149.408,281.302 152.143 C 279.718 152.745,278.939 151.561,279.387 149.235 C 279.497 148.660,279.766 145.235,279.985 141.623 C 280.470 133.587,278.939 134.508,292.213 134.268 C 298.398 134.156,303.729 133.943,304.060 133.794 C 304.663 133.523,284.990 133.798,251.005 134.535 C 236.030 134.860,232.647 134.783,231.757 134.099 C 230.956 133.484,231.001 133.653,231.931 134.755 M188.809 135.563 C 190.023 137.026,188.907 138.140,183.876 140.486 C 179.461 142.543,172.553 145.844,152.970 155.252 C 145.862 158.667,143.578 159.019,143.870 156.654 C 144.092 154.859,144.627 154.534,157.293 148.511 C 162.256 146.151,169.158 142.856,172.632 141.187 C 185.916 134.806,187.673 134.195,188.809 135.563 M206.194 146.194 C 206.357 147.600,205.813 147.993,199.577 150.967 C 195.840 152.750,187.001 157.000,179.936 160.412 C 172.871 163.825,167.018 166.617,166.928 166.617 C 166.839 166.617,161.721 169.053,155.555 172.030 C 143.325 177.935,143.626 177.830,142.580 176.570 C 141.405 175.154,142.402 173.625,145.433 172.194 C 146.994 171.458,152.602 168.788,157.895 166.262 C 163.188 163.736,169.684 160.644,172.331 159.392 C 185.780 153.030,200.168 146.086,201.504 145.313 C 203.845 143.958,205.980 144.359,206.194 146.194 M220.028 155.818 C 220.191 157.218,219.670 157.606,214.013 160.296 C 210.607 161.917,202.541 165.790,196.090 168.904 C 189.639 172.018,182.142 175.610,179.430 176.887 C 176.718 178.163,168.289 182.194,160.697 185.844 C 146.369 192.734,145.560 193.023,144.424 191.655 C 143.120 190.084,144.464 189.011,152.666 185.077 C 157.196 182.904,165.368 178.981,170.827 176.361 C 183.082 170.477,192.321 166.055,199.398 162.687 C 202.376 161.270,207.654 158.731,211.128 157.044 C 218.068 153.675,219.751 153.443,220.028 155.818 M220.087 172.856 C 221.362 174.392,220.121 175.425,212.757 178.954 C 208.718 180.889,200.406 184.886,194.286 187.836 C 188.165 190.786,181.128 194.157,178.647 195.328 C 176.165 196.499,170.537 199.167,166.139 201.256 C 158.273 204.992,156.829 205.317,156.135 203.508 C 155.489 201.826,160.153 199.284,187.842 186.231 C 194.108 183.276,205.125 178.016,211.729 174.823 C 217.884 171.849,219.028 171.580,220.087 172.856 M207.396 194.910 C 207.563 196.338,206.866 196.773,196.541 201.677 C 185.059 207.130,183.671 207.568,183.043 205.933 C 182.360 204.153,183.656 203.254,194.291 198.129 C 205.357 192.796,207.100 192.368,207.396 194.910 M146.301 223.397 C 146.551 224.704,146.433 224.783,144.896 224.342 C 143.379 223.907,119.721 238.477,111.984 244.611 L 110.585 245.720 120.556 258.171 C 131.166 271.421,131.200 271.477,129.272 272.509 C 127.500 273.457,128.238 273.879,130.148 273.009 C 132.476 271.948,132.511 272.008,121.782 258.647 C 116.337 251.865,111.881 246.116,111.881 245.872 C 111.880 245.468,142.000 225.117,143.022 224.831 C 145.508 224.134,147.320 225.676,150.938 231.562 C 154.541 237.425,158.067 242.027,162.623 246.810 L 164.812 249.108 164.794 262.449 L 164.776 275.789 160.132 278.067 C 153.535 281.303,137.018 290.961,134.425 293.099 C 132.318 294.835,131.559 296.116,130.767 299.275 L 130.396 300.752 171.014 300.752 L 211.633 300.752 212.734 297.594 C 214.344 292.975,214.286 282.704,212.632 279.410 C 209.615 273.405,202.267 271.215,185.865 271.432 C 173.992 271.589,174.935 271.405,166.197 275.274 C 165.651 275.516,165.432 272.116,165.294 261.255 C 165.076 244.157,165.061 244.211,169.939 244.211 L 173.233 244.211 173.233 238.020 L 173.233 231.830 167.853 230.813 C 161.818 229.672,156.340 227.639,150.186 224.256 C 146.133 222.029,146.035 222.007,146.301 223.397 M122.707 275.548 C 120.556 276.573,118.150 277.663,117.360 277.971 C 116.570 278.278,116.059 278.666,116.225 278.832 C 116.391 278.998,118.595 278.178,121.123 277.010 C 123.651 275.843,125.973 274.887,126.283 274.887 C 126.593 274.887,127.014 274.617,127.218 274.286 C 127.825 273.304,126.836 273.581,122.707 275.548 M110.977 280.932 C 107.005 282.872,102.960 284.734,83.308 293.663 C 76.030 296.971,69.805 299.944,69.474 300.270 C 68.609 301.123,78.921 296.523,106.660 283.682 C 109.249 282.484,111.549 281.502,111.773 281.500 C 111.997 281.498,112.992 280.958,113.985 280.301 C 116.569 278.589,115.176 278.882,110.977 280.932 M296.147 283.980 C 297.419 284.651,298.611 285.048,298.796 284.863 C 298.981 284.678,298.152 284.118,296.954 283.617 C 293.870 282.328,293.409 282.536,296.147 283.980 M299.549 285.448 C 299.549 285.874,306.312 288.776,306.610 288.478 C 306.753 288.335,306.292 287.908,305.585 287.530 C 303.793 286.571,299.549 285.107,299.549 285.448 M307.699 289.250 C 308.668 290.145,319.518 294.818,319.852 294.484 C 320.025 294.311,319.462 293.901,318.601 293.574 C 317.740 293.246,314.989 292.021,312.489 290.850 C 307.898 288.700,306.655 288.285,307.699 289.250 M320.602 295.059 C 320.602 295.236,321.752 295.886,323.158 296.503 C 324.564 297.120,327.271 298.325,329.173 299.181 C 331.075 300.037,332.632 300.593,332.632 300.418 C 332.632 300.121,321.493 294.737,320.879 294.737 C 320.726 294.737,320.602 294.882,320.602 295.059 " stroke="none" fill="#dcdde8" fill-rule="evenodd"></path><path id="path4" d="M0.000 150.376 L 0.000 300.752 34.466 300.752 C 53.890 300.752,69.182 300.517,69.504 300.214 C 69.818 299.918,76.030 296.971,83.308 293.663 C 90.586 290.356,98.915 286.538,101.816 285.179 C 104.717 283.819,107.195 282.707,107.323 282.707 C 107.450 282.707,111.468 280.842,116.250 278.563 C 121.033 276.284,125.592 274.215,126.383 273.965 C 131.966 272.199,132.117 272.610,120.556 258.171 L 110.585 245.720 111.984 244.611 C 119.654 238.530,143.379 223.907,144.878 224.337 C 147.245 225.016,146.822 222.001,144.344 220.537 C 119.893 206.093,110.340 162.719,126.375 138.947 L 127.389 137.444 119.183 137.830 C 112.816 138.130,79.224 138.550,75.338 138.379 C 73.660 138.305,74.924 137.065,82.037 131.804 C 88.056 127.352,97.978 119.723,103.472 115.320 C 115.843 105.409,118.512 103.138,118.742 102.324 C 118.893 101.790,119.183 95.940,119.387 89.323 C 120.381 57.070,121.585 33.855,122.414 30.933 C 124.675 22.967,130.335 13.234,134.790 9.654 C 140.765 4.852,141.864 4.776,178.647 6.619 C 200.251 7.702,222.443 7.087,231.880 5.144 C 260.410 -0.729,273.600 5.596,276.734 26.651 C 277.088 29.030,277.899 34.361,278.535 38.496 C 279.171 42.632,279.974 48.451,280.319 51.429 C 280.664 54.406,281.072 57.260,281.226 57.771 C 281.380 58.282,282.029 62.342,282.669 66.794 C 283.977 75.906,286.424 91.094,288.913 105.557 L 289.637 109.761 293.841 112.322 C 300.968 116.664,309.384 121.741,311.278 122.841 C 312.271 123.417,316.799 125.721,321.341 127.959 C 325.883 130.198,329.604 132.328,329.611 132.691 C 329.620 133.150,323.068 133.498,308.120 133.830 C 284.603 134.353,280.953 134.486,280.610 134.828 C 280.485 134.954,280.203 138.012,279.985 141.623 C 279.766 145.235,279.497 148.660,279.387 149.235 C 278.939 151.561,279.718 152.745,281.302 152.143 C 288.495 149.408,289.815 156.217,285.449 173.534 C 281.342 189.824,278.414 195.768,273.175 198.455 C 271.100 199.519,270.851 199.980,268.710 206.708 C 267.463 210.628,265.365 216.091,264.048 218.849 C 261.203 224.808,261.179 225.060,263.308 226.713 C 265.316 228.271,279.832 238.002,284.748 241.085 C 286.697 242.308,288.962 243.863,289.781 244.541 L 291.269 245.774 287.138 250.912 C 284.866 253.737,282.331 256.945,281.504 258.040 C 280.677 259.136,278.043 262.359,275.651 265.204 C 270.260 271.616,270.230 271.483,277.895 274.954 C 281.368 276.528,286.647 278.947,289.624 280.332 C 292.602 281.716,296.391 283.466,298.045 284.220 C 302.067 286.054,306.716 288.188,312.180 290.710 C 314.662 291.855,318.045 293.392,319.699 294.126 C 321.353 294.860,325.192 296.651,328.230 298.106 L 333.754 300.752 366.877 300.752 L 400.000 300.752 400.000 150.376 L 400.000 0.000 200.000 0.000 L 0.000 0.000 0.000 150.376 M242.612 169.925 C 242.614 172.571,242.720 173.579,242.847 172.165 C 242.974 170.750,242.972 168.584,242.843 167.353 C 242.714 166.121,242.610 167.278,242.612 169.925 M141.993 175.114 C 141.945 176.351,143.473 177.656,144.491 177.247 C 144.969 177.055,144.855 176.919,144.191 176.890 C 143.602 176.863,142.874 176.233,142.575 175.489 C 142.207 174.573,142.019 174.452,141.993 175.114 M173.458 237.895 C 173.459 241.534,173.559 242.945,173.678 241.031 C 173.798 239.116,173.797 236.139,173.676 234.414 C 173.555 232.689,173.457 234.256,173.458 237.895 M187.935 238.195 L 187.970 244.511 190.677 244.560 L 193.383 244.610 190.848 244.378 L 188.312 244.146 188.106 238.013 L 187.900 231.880 187.935 238.195 M180.926 271.123 C 183.006 271.240,186.255 271.239,188.144 271.120 C 190.033 271.002,188.331 270.905,184.361 270.906 C 180.391 270.908,178.845 271.005,180.926 271.123 " stroke="none" fill="#dee0a3" fill-rule="evenodd"></path></g></svg>