<svg id="svg" version="1.1"  xmlns="http://www.w3.org/2000/svg" xmlns:xlink="http://www.w3.org/1999/xlink" style="display: block;"><g id="svgg"><path id="path0" d="M245.277 3.608 C 241.987 4.155,236.244 5.048,227.886 6.314 C 219.107 7.644,192.689 8.119,179.010 7.194 C 156.717 5.686,142.698 5.686,139.682 7.194 C 133.391 10.340,125.647 20.768,123.771 28.620 C 123.552 29.536,123.112 30.616,122.794 31.021 C 122.475 31.426,122.098 34.934,121.955 38.817 C 121.813 42.700,121.436 51.049,121.118 57.370 C 120.800 63.691,120.543 72.192,120.548 76.260 C 120.555 82.942,119.594 99.180,119.006 102.290 C 118.878 102.973,117.098 104.862,115.051 106.488 C 113.004 108.115,109.123 111.199,106.425 113.343 C 99.081 119.181,83.305 131.280,79.184 134.236 C 77.189 135.666,75.702 137.072,75.879 137.358 C 76.173 137.835,91.683 137.694,110.345 137.044 C 114.468 136.900,119.787 136.771,122.165 136.757 C 126.539 136.731,129.535 135.096,129.535 132.735 C 129.535 131.625,140.321 120.886,143.328 119.001 C 144.813 118.071,146.297 117.018,146.627 116.660 C 147.232 116.005,156.998 111.093,159.220 110.327 C 167.004 107.643,170.624 107.093,180.510 107.091 C 188.618 107.089,195.420 107.882,197.790 109.106 C 198.346 109.393,200.015 109.979,201.499 110.408 C 210.820 113.101,225.096 123.663,230.937 132.188 C 231.689 133.284,232.726 134.423,233.243 134.718 C 234.475 135.422,276.447 134.554,280.239 133.747 C 281.822 133.409,290.078 133.133,298.586 133.133 C 321.905 133.133,328.966 132.667,327.158 131.244 C 326.382 130.634,325.571 130.135,325.355 130.135 C 323.901 130.135,300.969 117.491,298.603 115.386 C 298.083 114.922,297.503 114.543,297.314 114.543 C 297.126 114.543,295.258 113.505,293.164 112.236 C 289.011 109.720,287.466 106.388,287.315 99.620 C 287.283 98.174,287.003 96.015,286.693 94.822 C 286.383 93.630,285.696 89.820,285.167 86.357 C 284.637 82.894,283.832 77.766,283.378 74.963 C 282.924 72.159,282.241 67.571,281.861 64.768 C 281.481 61.964,280.802 57.511,280.351 54.873 C 279.901 52.234,279.230 47.781,278.861 44.978 C 276.363 25.987,275.325 20.808,273.066 16.065 C 268.531 6.540,257.467 1.580,245.277 3.608 M171.214 121.804 C 165.977 123.086,162.034 124.509,158.140 126.525 C 153.557 128.896,145.678 134.914,145.953 135.832 C 146.402 137.334,182.666 136.408,184.378 134.851 C 185.238 134.069,189.162 134.230,190.018 135.082 C 190.768 135.830,214.089 136.250,214.092 135.516 C 214.101 133.148,203.867 126.349,196.102 123.563 C 190.573 121.580,176.266 120.569,171.214 121.804 M132.834 230.893 C 127.556 234.501,122.834 237.644,122.339 237.878 C 121.844 238.112,119.922 239.333,118.068 240.591 C 116.214 241.849,114.402 242.879,114.041 242.879 C 110.819 242.879,112.142 246.153,118.645 254.273 C 120.098 256.087,122.131 258.635,123.162 259.936 C 124.194 261.237,126.454 263.983,128.186 266.039 C 129.918 268.095,131.334 270.155,131.334 270.618 C 131.334 271.081,129.918 272.097,128.186 272.876 C 126.454 273.655,122.204 275.606,118.741 277.211 C 115.277 278.816,111.904 280.362,111.244 280.646 C 110.585 280.931,108.021 282.100,105.547 283.244 C 103.073 284.388,99.700 285.928,98.051 286.665 C 96.402 287.403,92.317 289.322,88.975 290.930 C 85.632 292.538,82.738 293.853,82.544 293.853 C 82.172 293.853,76.637 296.306,73.264 297.967 C 72.164 298.508,71.136 299.153,70.979 299.400 C 70.822 299.648,84.338 299.850,101.014 299.850 L 131.334 299.850 131.334 298.397 C 131.334 296.903,134.531 292.237,136.132 291.394 C 137.926 290.448,145.926 285.731,147.456 284.717 C 148.319 284.144,149.565 283.406,150.225 283.075 C 150.885 282.745,154.393 280.904,158.021 278.985 L 164.618 275.496 164.779 261.463 L 164.940 247.431 162.256 244.859 C 159.479 242.197,152.488 233.241,151.866 231.547 C 151.672 231.018,150.917 229.775,150.189 228.786 C 149.461 227.796,148.680 226.379,148.455 225.637 C 147.441 222.300,143.425 223.651,132.834 230.893 M259.392 226.617 C 258.476 229.505,250.742 240.323,246.401 244.791 C 241.940 249.382,233.810 255.088,228.712 257.206 C 226.114 258.286,223.178 259.534,222.189 259.979 C 221.199 260.424,219.445 260.909,218.291 261.056 C 217.136 261.203,213.923 261.659,211.149 262.068 C 208.376 262.477,204.002 262.690,201.430 262.541 C 196.077 262.231,196.102 262.210,196.102 267.194 C 196.102 270.855,196.596 271.346,200.974 272.044 C 212.097 273.816,217.261 285.331,211.883 296.372 C 210.051 300.134,205.213 299.850,271.064 299.850 C 304.048 299.850,331.034 299.632,331.034 299.366 C 331.034 299.099,329.888 298.404,328.486 297.821 C 327.084 297.238,324.588 296.134,322.939 295.367 C 315.723 292.013,311.824 290.255,311.599 290.255 C 311.466 290.255,308.431 288.879,304.854 287.197 C 301.277 285.515,297.271 283.651,295.952 283.056 C 291.191 280.906,285.682 278.385,281.859 276.606 C 279.715 275.608,276.274 274.051,274.213 273.146 C 272.151 272.241,270.465 271.305,270.465 271.066 C 270.465 270.322,273.492 266.124,276.738 262.369 C 278.448 260.390,281.702 256.342,283.968 253.373 C 286.234 250.405,288.575 247.493,289.171 246.903 C 290.905 245.187,290.918 245.199,276.106 235.352 C 260.724 225.125,259.988 224.741,259.392 226.617 " stroke="none" fill="#000000" fill-rule="evenodd"></path><path id="path1" d="M169.715 108.232 C 159.585 110.185,152.362 113.270,143.996 119.217 C 134.151 126.216,124.130 139.479,121.248 149.325 C 118.912 157.306,118.561 159.295,118.283 166.168 C 117.124 194.739,134.863 220.451,161.019 228.113 C 162.999 228.692,165.238 229.418,165.995 229.726 C 166.753 230.033,168.283 230.285,169.394 230.285 C 173.232 230.285,173.313 230.423,173.313 236.910 C 173.313 243.229,173.026 243.861,170.289 243.574 C 169.450 243.486,168.033 243.692,167.140 244.031 L 165.517 244.648 165.517 259.020 C 165.517 276.016,164.968 275.013,172.414 271.610 C 173.615 271.061,177.699 270.685,184.708 270.477 L 195.202 270.165 195.365 258.305 C 195.554 244.520,195.472 244.219,191.451 243.961 L 188.606 243.778 188.606 237.181 L 188.606 230.585 191.304 230.397 C 192.789 230.294,194.259 229.956,194.573 229.647 C 194.886 229.338,195.593 229.085,196.144 229.085 C 207.803 229.085,228.649 212.155,236.194 196.557 C 241.061 186.494,242.485 180.219,242.407 169.179 C 242.132 130.548,206.952 101.053,169.715 108.232 M192.804 109.463 C 194.123 109.938,196.079 110.331,197.151 110.336 C 198.223 110.341,199.100 110.593,199.100 110.897 C 199.100 111.201,199.969 111.640,201.030 111.873 C 202.091 112.106,203.373 112.513,203.878 112.779 C 204.384 113.044,206.619 114.112,208.846 115.151 C 211.072 116.191,212.894 117.289,212.894 117.591 C 212.894 117.894,213.259 118.141,213.706 118.141 C 214.152 118.141,215.245 118.816,216.135 119.640 C 217.025 120.465,217.963 121.139,218.220 121.139 C 218.682 121.139,223.697 126.131,228.438 131.308 C 229.784 132.777,230.885 134.316,230.885 134.726 C 230.885 135.137,231.222 135.688,231.634 135.952 C 232.046 136.216,233.567 138.861,235.013 141.829 C 236.460 144.798,237.876 147.695,238.162 148.268 C 238.447 148.840,238.681 149.744,238.681 150.276 C 238.681 150.808,239.066 152.093,239.537 153.133 C 240.007 154.172,240.546 156.237,240.734 157.721 C 241.721 165.503,242.059 172.261,241.593 174.885 C 241.308 176.494,240.925 178.891,240.742 180.210 C 240.312 183.323,238.673 189.045,238.004 189.775 C 237.716 190.088,237.481 190.677,237.481 191.083 C 237.481 192.224,233.158 201.039,232.078 202.099 C 231.910 202.264,231.000 203.590,230.056 205.046 C 227.560 208.893,219.791 216.328,214.649 219.790 C 212.199 221.439,210.105 222.991,209.995 223.238 C 209.885 223.486,209.420 223.688,208.962 223.688 C 208.504 223.688,206.705 224.336,204.964 225.128 C 202.148 226.408,199.647 227.273,193.361 229.139 C 192.348 229.439,190.864 229.689,190.062 229.694 C 187.341 229.711,186.972 230.426,186.724 236.153 C 186.415 243.314,186.945 244.678,190.041 244.678 C 194.513 244.678,194.303 244.045,194.303 257.486 L 194.303 269.566 190.832 269.530 C 188.924 269.510,187.102 269.341,186.785 269.153 C 185.594 268.449,173.809 269.774,172.752 270.730 C 172.184 271.244,171.015 271.664,170.153 271.664 C 169.291 271.664,168.420 271.934,168.216 272.264 C 166.496 275.047,166.117 272.740,166.117 259.490 C 166.117 244.448,166.050 244.678,170.414 244.678 C 174.089 244.678,174.471 243.964,174.566 236.928 C 174.648 230.788,174.156 229.685,171.333 229.685 C 170.325 229.685,168.672 229.434,167.659 229.127 C 166.646 228.820,164.198 228.103,162.219 227.533 C 151.666 224.494,139.434 216.356,133.350 208.325 C 132.407 207.079,131.036 205.408,130.304 204.612 C 129.572 203.816,128.812 202.655,128.614 202.032 C 128.417 201.409,128.063 200.900,127.828 200.900 C 127.593 200.900,126.877 199.550,126.237 197.901 C 125.597 196.252,124.863 194.903,124.606 194.903 C 124.348 194.903,124.138 194.507,124.138 194.023 C 124.138 193.540,123.696 192.123,123.155 190.875 C 120.465 184.664,119.804 180.940,119.525 170.445 C 119.340 163.478,119.504 160.409,120.210 157.653 C 120.721 155.658,121.139 153.389,121.139 152.611 C 121.139 151.832,121.409 151.028,121.739 150.825 C 122.069 150.621,122.339 150.060,122.339 149.578 C 122.339 148.700,127.022 138.495,127.684 137.931 C 127.878 137.766,129.036 136.147,130.258 134.333 C 133.291 129.833,137.099 125.723,137.823 126.170 C 138.175 126.388,138.291 126.047,138.105 125.338 C 137.921 124.635,138.086 124.138,138.503 124.138 C 139.215 124.138,145.250 119.439,145.627 118.591 C 145.737 118.343,146.176 118.141,146.603 118.141 C 147.030 118.141,147.715 117.736,148.126 117.241 C 148.537 116.747,149.250 116.342,149.711 116.342 C 150.171 116.342,151.555 115.711,152.786 114.941 C 154.016 114.170,156.372 113.046,158.021 112.443 C 159.670 111.839,161.276 111.121,161.589 110.845 C 161.903 110.570,162.847 110.341,163.688 110.336 C 164.529 110.331,166.432 109.944,167.916 109.476 C 171.719 108.278,189.488 108.268,192.804 109.463 M168.816 120.857 C 167.496 121.332,165.959 121.725,165.399 121.730 C 164.839 121.735,163.112 122.414,161.562 123.238 C 160.011 124.063,158.377 124.738,157.932 124.738 C 157.486 124.738,157.121 124.978,157.121 125.272 C 157.121 125.566,156.447 125.976,155.622 126.183 C 154.798 126.390,154.123 126.824,154.123 127.148 C 154.123 127.471,153.813 127.736,153.435 127.736 C 152.217 127.736,141.529 137.188,141.529 138.266 C 141.529 138.459,141.192 138.993,140.780 139.452 C 138.352 142.160,136.026 146.517,133.270 153.523 C 130.993 159.310,130.030 173.377,131.597 177.974 C 132.112 179.486,132.534 181.367,132.534 182.153 C 132.534 183.497,134.410 188.161,136.578 192.204 C 137.109 193.193,137.833 194.543,138.187 195.202 C 141.256 200.919,153.226 212.294,156.174 212.294 C 156.640 212.294,157.111 212.496,157.221 212.744 C 157.557 213.498,161.365 215.126,166.417 216.676 C 176.582 219.794,190.486 219.063,199.567 214.933 C 201.307 214.141,202.994 213.493,203.315 213.493 C 203.636 213.493,203.901 213.291,203.905 213.043 C 203.909 212.796,204.988 212.078,206.304 211.448 C 207.619 210.817,208.696 210.075,208.696 209.799 C 208.696 209.522,209.033 209.293,209.445 209.290 C 209.858 209.287,211.679 207.792,213.493 205.967 C 215.307 204.142,217.804 201.672,219.040 200.479 C 220.277 199.285,221.289 197.947,221.289 197.505 C 221.289 197.063,221.541 196.702,221.849 196.702 C 222.156 196.702,222.597 196.094,222.829 195.352 C 223.061 194.610,223.416 193.868,223.619 193.703 C 223.822 193.538,224.490 192.324,225.104 191.004 C 225.718 189.685,226.456 188.143,226.746 187.576 C 230.152 180.907,230.864 164.062,228.110 155.322 C 226.577 150.460,222.853 142.858,220.879 140.560 C 220.115 139.671,219.490 138.765,219.490 138.546 C 219.490 136.801,207.223 126.520,203.298 124.976 C 202.804 124.781,201.589 124.271,200.600 123.843 C 192.813 120.474,189.983 119.937,180.157 119.966 C 173.939 119.985,170.484 120.256,168.816 120.857 M190.518 121.470 C 208.274 125.516,221.380 137.574,226.985 155.022 C 229.797 163.774,229.369 179.574,226.134 186.445 C 221.465 196.363,219.702 198.884,213.053 205.139 C 204.393 213.285,192.879 217.691,180.253 217.691 C 140.777 217.691,118.004 172.887,141.085 140.630 C 152.283 124.980,172.139 117.284,190.518 121.470 M184.108 135.681 C 177.228 138.744,165.070 144.469,153.073 150.294 C 144.918 154.255,143.928 154.897,143.928 156.228 C 143.928 157.357,144.243 157.721,145.219 157.721 C 146.520 157.721,147.420 157.326,161.619 150.525 C 165.907 148.471,173.328 144.930,178.111 142.655 C 189.078 137.439,188.571 137.744,188.797 136.221 C 189.027 134.678,187.965 134.479,187.569 135.990 C 187.334 136.892,178.321 141.787,172.714 144.059 C 171.889 144.393,170.810 144.906,170.315 145.198 C 169.820 145.491,168.745 146.016,167.926 146.367 C 167.107 146.717,163.176 148.605,159.190 150.563 C 155.205 152.521,151.740 154.123,151.491 154.123 C 151.242 154.123,150.634 154.528,150.139 155.022 C 149.644 155.517,148.735 155.922,148.118 155.922 C 147.502 155.922,146.831 156.192,146.627 156.522 C 146.066 157.430,144.528 157.239,144.528 156.262 C 144.528 155.790,145.067 155.232,145.727 155.022 C 146.387 154.813,146.927 154.390,146.927 154.083 C 146.927 153.775,147.322 153.523,147.806 153.523 C 148.890 153.523,153.149 151.591,153.423 150.975 C 153.533 150.727,153.938 150.524,154.323 150.523 C 154.708 150.522,157.991 149.041,161.619 147.232 C 165.247 145.424,168.553 143.940,168.966 143.936 C 169.378 143.932,169.715 143.658,169.715 143.328 C 169.715 142.999,170.093 142.729,170.555 142.729 C 171.017 142.729,173.506 141.649,176.086 140.330 C 178.666 139.010,181.121 137.931,181.543 137.931 C 181.964 137.931,182.309 137.661,182.309 137.331 C 182.309 137.001,182.916 136.723,183.658 136.713 C 184.400 136.702,185.531 136.297,186.172 135.813 C 187.577 134.750,186.373 134.673,184.108 135.681 M194.003 148.561 C 183.297 153.873,171.459 159.623,164.018 163.125 C 142.335 173.330,141.434 173.852,142.750 175.439 C 143.764 176.660,145.035 176.534,148.458 174.872 C 156.234 171.099,170.506 164.242,174.813 162.209 C 177.451 160.964,183.253 158.201,187.706 156.068 C 192.159 153.936,198.008 151.149,200.705 149.874 C 206.190 147.281,206.628 146.866,205.704 145.140 C 204.766 143.387,203.950 143.625,194.003 148.561 M205.097 146.261 C 205.097 146.516,203.498 147.437,201.544 148.309 C 199.589 149.182,197.819 150.172,197.610 150.510 C 197.402 150.848,196.572 151.124,195.767 151.124 C 194.962 151.124,194.303 151.342,194.303 151.609 C 194.303 151.875,193.156 152.580,191.754 153.174 C 190.352 153.769,188.193 154.682,186.957 155.204 C 185.720 155.726,184.708 156.371,184.708 156.637 C 184.708 156.904,184.392 157.121,184.005 157.121 C 183.619 157.121,181.528 157.955,179.358 158.973 C 177.188 159.991,174.738 161.138,173.913 161.521 C 173.088 161.904,172.279 162.352,172.114 162.518 C 171.949 162.683,170.870 163.253,169.715 163.785 C 168.561 164.316,165.846 165.598,163.682 166.633 C 161.519 167.669,159.427 168.516,159.035 168.516 C 158.642 168.516,158.321 168.786,158.321 169.115 C 158.321 169.445,158.007 169.715,157.623 169.715 C 156.504 169.715,152.324 171.698,152.324 172.229 C 152.324 172.496,151.824 172.714,151.214 172.714 C 150.603 172.714,148.835 173.388,147.284 174.213 C 143.998 175.960,143.928 175.974,143.928 174.882 C 143.928 173.919,146.456 172.114,147.805 172.114 C 148.311 172.114,148.726 171.849,148.726 171.526 C 148.726 171.202,149.468 170.752,150.375 170.526 C 151.282 170.300,152.834 169.623,153.823 169.021 C 154.813 168.419,156.027 167.765,156.522 167.568 C 157.409 167.215,162.030 165.112,166.117 163.200 C 167.271 162.661,168.306 162.016,168.416 161.769 C 168.526 161.522,169.252 161.319,170.030 161.319 C 170.807 161.319,171.600 161.067,171.791 160.758 C 172.250 160.014,175.677 158.321,176.723 158.321 C 177.177 158.321,177.704 157.916,177.894 157.421 C 178.084 156.927,178.659 156.522,179.173 156.522 C 180.471 156.522,184.708 154.597,184.708 154.008 C 184.708 153.741,185.366 153.523,186.172 153.523 C 186.977 153.523,187.798 153.261,187.996 152.940 C 188.194 152.619,189.357 151.907,190.580 151.359 C 192.611 150.448,196.694 148.599,202.075 146.155 C 204.071 145.247,205.097 145.283,205.097 146.261 M209.229 157.612 C 204.740 159.816,198.668 162.756,195.736 164.146 C 180.542 171.348,172.193 175.333,164.318 179.145 C 159.535 181.460,153.463 184.371,150.825 185.615 C 145.603 188.076,143.928 189.260,143.928 190.486 C 143.928 192.111,146.631 191.990,150.247 190.203 C 152.214 189.231,156.657 187.088,160.120 185.442 C 163.583 183.796,170.195 180.641,174.813 178.431 C 179.430 176.222,184.423 173.858,185.907 173.177 C 187.391 172.497,193.463 169.587,199.400 166.709 C 205.337 163.831,212.260 160.491,214.784 159.286 C 219.471 157.047,220.638 155.806,219.427 154.347 C 218.428 153.143,218.148 153.233,209.229 157.612 M218.747 155.472 C 218.614 155.885,215.825 157.537,212.550 159.145 C 209.276 160.753,206.106 162.319,205.507 162.624 C 201.669 164.579,195.059 167.834,194.303 168.142 C 193.808 168.343,192.999 168.757,192.504 169.062 C 191.047 169.958,187.280 171.514,186.566 171.514 C 186.204 171.514,185.907 171.784,185.907 172.114 C 185.907 172.444,185.580 172.714,185.180 172.714 C 184.780 172.714,182.284 173.759,179.633 175.037 C 176.982 176.314,173.868 177.806,172.714 178.352 C 171.559 178.897,170.210 179.576,169.715 179.860 C 167.472 181.147,162.130 183.508,161.461 183.508 C 161.053 183.508,160.720 183.778,160.720 184.108 C 160.720 184.438,160.199 184.708,159.563 184.708 C 158.927 184.708,158.002 185.112,157.507 185.607 C 157.012 186.102,156.358 186.507,156.054 186.507 C 155.750 186.507,154.314 187.118,152.863 187.865 C 146.488 191.149,145.727 191.397,145.727 190.197 C 145.727 189.598,146.469 188.755,147.376 188.323 C 148.283 187.891,149.970 187.104,151.124 186.573 C 152.279 186.042,153.358 185.446,153.523 185.250 C 153.688 185.053,154.565 184.711,155.472 184.489 C 156.379 184.267,157.121 183.820,157.121 183.497 C 157.121 183.173,157.517 182.909,158.001 182.909 C 159.085 182.909,163.344 180.976,163.618 180.360 C 163.728 180.112,164.302 179.910,164.894 179.910 C 165.486 179.910,166.306 179.505,166.717 179.010 C 167.127 178.516,167.744 178.111,168.088 178.111 C 169.151 178.111,173.313 176.108,173.313 175.597 C 173.313 175.330,173.966 175.112,174.763 175.112 C 175.560 175.112,176.302 174.910,176.412 174.663 C 176.522 174.415,177.624 173.741,178.861 173.163 C 180.097 172.586,182.121 171.642,183.358 171.064 C 184.595 170.487,185.697 169.813,185.807 169.565 C 185.917 169.318,186.349 169.115,186.767 169.115 C 187.185 169.115,188.715 168.486,190.166 167.716 C 191.616 166.946,193.546 166.132,194.453 165.906 C 195.360 165.679,196.102 165.230,196.102 164.906 C 196.102 164.583,196.482 164.318,196.946 164.318 C 197.410 164.318,199.097 163.670,200.694 162.879 C 202.291 162.088,204.003 161.280,204.498 161.084 C 204.993 160.888,205.802 160.486,206.297 160.191 C 206.792 159.895,208.681 158.984,210.495 158.164 C 212.309 157.345,214.738 156.242,215.892 155.712 C 218.442 154.543,219.066 154.491,218.747 155.472 M216.492 172.125 C 215.459 172.746,192.831 183.623,178.411 190.430 C 175.112 191.986,169.368 194.709,165.646 196.480 C 161.923 198.251,158.755 199.700,158.606 199.700 C 157.657 199.700,156.116 201.811,156.366 202.768 C 156.926 204.909,157.303 204.778,174.813 196.403 C 178.441 194.668,183.433 192.293,185.907 191.126 C 215.295 177.261,219.756 174.978,219.998 173.685 C 220.332 171.892,218.348 171.010,216.492 172.125 M218.891 173.512 C 218.891 173.951,218.283 174.598,217.541 174.951 C 216.799 175.303,212.414 177.398,207.796 179.606 C 195.592 185.441,178.752 193.453,175.712 194.871 C 175.217 195.102,174.003 195.718,173.013 196.239 C 169.989 197.834,164.694 200.206,163.268 200.604 C 162.526 200.811,161.919 201.232,161.919 201.540 C 161.919 201.847,161.433 202.099,160.840 202.099 C 160.246 202.099,159.441 202.418,159.050 202.809 C 158.026 203.833,157.400 202.909,158.346 201.769 C 158.784 201.241,163.073 198.915,167.877 196.599 C 187.443 187.168,189.910 185.994,192.354 184.958 C 193.756 184.364,194.903 183.659,194.903 183.393 C 194.903 183.126,195.275 182.909,195.730 182.909 C 196.185 182.909,198.682 181.867,201.277 180.594 C 217.945 172.419,218.891 172.039,218.891 173.512 M198.201 195.769 C 184.983 202.159,183.589 202.926,183.320 203.953 C 182.558 206.867,185.932 206.232,195.007 201.753 C 206.662 196.001,207.196 195.682,207.196 194.485 C 207.196 192.518,203.975 192.978,198.201 195.769 M206.159 194.453 C 205.876 195.344,186.676 205.062,185.157 205.083 C 183.193 205.110,184.100 203.533,186.657 202.475 C 188.058 201.896,190.015 200.986,191.004 200.455 C 191.994 199.923,193.343 199.224,194.003 198.901 C 194.663 198.579,195.607 198.085,196.102 197.804 C 196.597 197.523,197.406 197.148,197.901 196.970 C 198.396 196.792,200.015 196.016,201.499 195.246 C 204.548 193.664,206.515 193.329,206.159 194.453 " stroke="none" fill="#cacaca" fill-rule="evenodd"></path><path id="path2" d="M167.916 109.476 C 166.432 109.944,164.529 110.331,163.688 110.336 C 162.847 110.341,161.903 110.570,161.589 110.845 C 161.276 111.121,159.670 111.839,158.021 112.443 C 156.372 113.046,154.016 114.170,152.786 114.941 C 151.555 115.711,150.171 116.342,149.711 116.342 C 149.250 116.342,148.537 116.747,148.126 117.241 C 147.715 117.736,147.030 118.141,146.603 118.141 C 146.176 118.141,145.737 118.343,145.627 118.591 C 145.250 119.439,139.215 124.138,138.503 124.138 C 138.086 124.138,137.921 124.635,138.105 125.338 C 138.291 126.047,138.175 126.388,137.823 126.170 C 137.099 125.723,133.291 129.833,130.258 134.333 C 129.036 136.147,127.878 137.766,127.684 137.931 C 127.022 138.495,122.339 148.700,122.339 149.578 C 122.339 150.060,122.069 150.621,121.739 150.825 C 121.409 151.028,121.139 151.832,121.139 152.611 C 121.139 153.389,120.721 155.658,120.210 157.653 C 119.504 160.409,119.340 163.478,119.525 170.445 C 119.804 180.940,120.465 184.664,123.155 190.875 C 123.696 192.123,124.138 193.540,124.138 194.023 C 124.138 194.507,124.348 194.903,124.606 194.903 C 124.863 194.903,125.597 196.252,126.237 197.901 C 126.877 199.550,127.593 200.900,127.828 200.900 C 128.063 200.900,128.417 201.409,128.614 202.032 C 128.812 202.655,129.572 203.816,130.304 204.612 C 131.036 205.408,132.407 207.079,133.350 208.325 C 139.434 216.356,151.666 224.494,162.219 227.533 C 164.198 228.103,166.646 228.820,167.659 229.127 C 168.672 229.434,170.325 229.685,171.333 229.685 C 174.156 229.685,174.648 230.788,174.566 236.928 C 174.471 243.964,174.089 244.678,170.414 244.678 C 166.050 244.678,166.117 244.448,166.117 259.490 C 166.117 272.740,166.496 275.047,168.216 272.264 C 168.420 271.934,169.291 271.664,170.153 271.664 C 171.015 271.664,172.184 271.244,172.752 270.730 C 173.809 269.774,185.594 268.449,186.785 269.153 C 187.102 269.341,188.924 269.510,190.832 269.530 L 194.303 269.566 194.303 257.486 C 194.303 244.045,194.513 244.678,190.041 244.678 C 186.945 244.678,186.415 243.314,186.724 236.153 C 186.972 230.426,187.341 229.711,190.062 229.694 C 190.864 229.689,192.348 229.439,193.361 229.139 C 199.647 227.273,202.148 226.408,204.964 225.128 C 206.705 224.336,208.504 223.688,208.962 223.688 C 209.420 223.688,209.885 223.486,209.995 223.238 C 210.105 222.991,212.199 221.439,214.649 219.790 C 219.791 216.328,227.560 208.893,230.056 205.046 C 231.000 203.590,231.910 202.264,232.078 202.099 C 233.158 201.039,237.481 192.224,237.481 191.083 C 237.481 190.677,237.716 190.088,238.004 189.775 C 238.673 189.045,240.312 183.323,240.742 180.210 C 240.925 178.891,241.308 176.494,241.593 174.885 C 242.059 172.261,241.721 165.503,240.734 157.721 C 240.546 156.237,240.007 154.172,239.537 153.133 C 239.066 152.093,238.681 150.808,238.681 150.276 C 238.681 149.744,238.447 148.840,238.162 148.268 C 237.876 147.695,236.460 144.798,235.013 141.829 C 233.567 138.861,232.046 136.216,231.634 135.952 C 231.222 135.688,230.885 135.137,230.885 134.726 C 230.885 134.316,229.784 132.777,228.438 131.308 C 223.697 126.131,218.682 121.139,218.220 121.139 C 217.963 121.139,217.025 120.465,216.135 119.640 C 215.245 118.816,214.152 118.141,213.706 118.141 C 213.259 118.141,212.894 117.894,212.894 117.591 C 212.894 117.289,211.072 116.191,208.846 115.151 C 206.619 114.112,204.384 113.044,203.878 112.779 C 203.373 112.513,202.091 112.106,201.030 111.873 C 199.969 111.640,199.100 111.201,199.100 110.897 C 199.100 110.593,198.223 110.341,197.151 110.336 C 196.079 110.331,194.123 109.938,192.804 109.463 C 189.488 108.268,171.719 108.278,167.916 109.476 M192.451 120.914 C 195.864 121.907,197.401 122.459,200.600 123.843 C 201.589 124.271,202.804 124.781,203.298 124.976 C 207.223 126.520,219.490 136.801,219.490 138.546 C 219.490 138.765,220.115 139.671,220.879 140.560 C 222.853 142.858,226.577 150.460,228.110 155.322 C 230.864 164.062,230.152 180.907,226.746 187.576 C 226.456 188.143,225.718 189.685,225.104 191.004 C 224.490 192.324,223.822 193.538,223.619 193.703 C 223.416 193.868,223.061 194.610,222.829 195.352 C 222.597 196.094,222.156 196.702,221.849 196.702 C 221.541 196.702,221.289 197.063,221.289 197.505 C 221.289 197.947,220.277 199.285,219.040 200.479 C 217.804 201.672,215.307 204.142,213.493 205.967 C 211.679 207.792,209.858 209.287,209.445 209.290 C 209.033 209.293,208.696 209.522,208.696 209.799 C 208.696 210.075,207.619 210.817,206.304 211.448 C 204.988 212.078,203.909 212.796,203.905 213.043 C 203.901 213.291,203.636 213.493,203.315 213.493 C 202.994 213.493,201.307 214.141,199.567 214.933 C 190.486 219.063,176.582 219.794,166.417 216.676 C 161.365 215.126,157.557 213.498,157.221 212.744 C 157.111 212.496,156.640 212.294,156.174 212.294 C 153.226 212.294,141.256 200.919,138.187 195.202 C 137.833 194.543,137.109 193.193,136.578 192.204 C 134.410 188.161,132.534 183.497,132.534 182.153 C 132.534 181.367,132.112 179.486,131.597 177.974 C 130.030 173.377,130.993 159.310,133.270 153.523 C 136.026 146.517,138.352 142.160,140.780 139.452 C 141.192 138.993,141.529 138.459,141.529 138.266 C 141.529 137.188,152.217 127.736,153.435 127.736 C 153.813 127.736,154.123 127.471,154.123 127.148 C 154.123 126.824,154.798 126.390,155.622 126.183 C 156.447 125.976,157.121 125.566,157.121 125.272 C 157.121 124.978,157.486 124.738,157.932 124.738 C 158.377 124.738,160.011 124.063,161.562 123.238 C 163.112 122.414,164.839 121.735,165.399 121.730 C 165.959 121.725,167.496 121.332,168.816 120.857 C 172.351 119.583,188.003 119.621,192.451 120.914 M186.163 135.819 C 185.528 136.300,184.400 136.702,183.658 136.713 C 182.916 136.723,182.309 137.001,182.309 137.331 C 182.309 137.661,181.964 137.931,181.543 137.931 C 181.121 137.931,178.666 139.010,176.086 140.330 C 173.506 141.649,171.017 142.729,170.555 142.729 C 170.093 142.729,169.715 142.999,169.715 143.328 C 169.715 143.658,169.378 143.932,168.966 143.936 C 168.553 143.940,165.247 145.424,161.619 147.232 C 157.991 149.041,154.708 150.522,154.323 150.523 C 153.938 150.524,153.533 150.727,153.423 150.975 C 153.149 151.591,148.890 153.523,147.806 153.523 C 147.322 153.523,146.927 153.775,146.927 154.083 C 146.927 154.390,146.387 154.813,145.727 155.022 C 145.067 155.232,144.528 155.790,144.528 156.262 C 144.528 157.239,146.066 157.430,146.627 156.522 C 146.831 156.192,147.502 155.922,148.118 155.922 C 148.735 155.922,149.644 155.517,150.139 155.022 C 150.634 154.528,151.242 154.123,151.491 154.123 C 151.740 154.123,155.205 152.521,159.190 150.563 C 163.176 148.605,167.107 146.717,167.926 146.367 C 168.745 146.016,169.820 145.491,170.315 145.198 C 170.810 144.906,171.889 144.393,172.714 144.059 C 177.277 142.210,187.287 136.959,187.549 136.276 C 188.020 135.048,187.437 134.855,186.163 135.819 M202.075 146.155 C 196.694 148.599,192.611 150.448,190.580 151.359 C 189.357 151.907,188.194 152.619,187.996 152.940 C 187.798 153.261,186.977 153.523,186.172 153.523 C 185.366 153.523,184.708 153.741,184.708 154.008 C 184.708 154.597,180.471 156.522,179.173 156.522 C 178.659 156.522,178.084 156.927,177.894 157.421 C 177.704 157.916,177.177 158.321,176.723 158.321 C 175.677 158.321,172.250 160.014,171.791 160.758 C 171.600 161.067,170.807 161.319,170.030 161.319 C 169.252 161.319,168.526 161.522,168.416 161.769 C 168.306 162.016,167.271 162.661,166.117 163.200 C 162.030 165.112,157.409 167.215,156.522 167.568 C 156.027 167.765,154.813 168.419,153.823 169.021 C 152.834 169.623,151.282 170.300,150.375 170.526 C 149.468 170.752,148.726 171.202,148.726 171.526 C 148.726 171.849,148.311 172.114,147.805 172.114 C 146.456 172.114,143.928 173.919,143.928 174.882 C 143.928 175.974,143.998 175.960,147.284 174.213 C 148.835 173.388,150.603 172.714,151.214 172.714 C 151.824 172.714,152.324 172.496,152.324 172.229 C 152.324 171.698,156.504 169.715,157.623 169.715 C 158.007 169.715,158.321 169.445,158.321 169.115 C 158.321 168.786,158.642 168.516,159.035 168.516 C 159.427 168.516,161.519 167.669,163.682 166.633 C 165.846 165.598,168.561 164.316,169.715 163.785 C 170.870 163.253,171.949 162.683,172.114 162.518 C 172.279 162.352,173.088 161.904,173.913 161.521 C 174.738 161.138,177.188 159.991,179.358 158.973 C 181.528 157.955,183.619 157.121,184.005 157.121 C 184.392 157.121,184.708 156.904,184.708 156.637 C 184.708 156.371,185.720 155.726,186.957 155.204 C 188.193 154.682,190.352 153.769,191.754 153.174 C 193.156 152.580,194.303 151.875,194.303 151.609 C 194.303 151.342,194.962 151.124,195.767 151.124 C 196.572 151.124,197.402 150.848,197.610 150.510 C 197.819 150.172,199.589 149.182,201.544 148.309 C 203.498 147.437,205.097 146.516,205.097 146.261 C 205.097 145.283,204.071 145.247,202.075 146.155 M215.892 155.712 C 214.738 156.242,212.309 157.345,210.495 158.164 C 208.681 158.984,206.792 159.895,206.297 160.191 C 205.802 160.486,204.993 160.888,204.498 161.084 C 204.003 161.280,202.291 162.088,200.694 162.879 C 199.097 163.670,197.410 164.318,196.946 164.318 C 196.482 164.318,196.102 164.583,196.102 164.906 C 196.102 165.230,195.360 165.679,194.453 165.906 C 193.546 166.132,191.616 166.946,190.166 167.716 C 188.715 168.486,187.185 169.115,186.767 169.115 C 186.349 169.115,185.917 169.318,185.807 169.565 C 185.697 169.813,184.595 170.487,183.358 171.064 C 182.121 171.642,180.097 172.586,178.861 173.163 C 177.624 173.741,176.522 174.415,176.412 174.663 C 176.302 174.910,175.560 175.112,174.763 175.112 C 173.966 175.112,173.313 175.330,173.313 175.597 C 173.313 176.108,169.151 178.111,168.088 178.111 C 167.744 178.111,167.127 178.516,166.717 179.010 C 166.306 179.505,165.486 179.910,164.894 179.910 C 164.302 179.910,163.728 180.112,163.618 180.360 C 163.344 180.976,159.085 182.909,158.001 182.909 C 157.517 182.909,157.121 183.173,157.121 183.497 C 157.121 183.820,156.379 184.267,155.472 184.489 C 154.565 184.711,153.688 185.053,153.523 185.250 C 153.358 185.446,152.279 186.042,151.124 186.573 C 149.970 187.104,148.283 187.891,147.376 188.323 C 146.469 188.755,145.727 189.598,145.727 190.197 C 145.727 191.397,146.488 191.149,152.863 187.865 C 154.314 187.118,155.750 186.507,156.054 186.507 C 156.358 186.507,157.012 186.102,157.507 185.607 C 158.002 185.112,158.927 184.708,159.563 184.708 C 160.199 184.708,160.720 184.438,160.720 184.108 C 160.720 183.778,161.053 183.508,161.461 183.508 C 162.130 183.508,167.472 181.147,169.715 179.860 C 170.210 179.576,171.559 178.897,172.714 178.352 C 173.868 177.806,176.982 176.314,179.633 175.037 C 182.284 173.759,184.780 172.714,185.180 172.714 C 185.580 172.714,185.907 172.444,185.907 172.114 C 185.907 171.784,186.204 171.514,186.566 171.514 C 187.280 171.514,191.047 169.958,192.504 169.062 C 192.999 168.757,193.808 168.343,194.303 168.142 C 195.059 167.834,201.669 164.579,205.507 162.624 C 206.106 162.319,209.276 160.753,212.550 159.145 C 215.825 157.537,218.614 155.885,218.747 155.472 C 219.066 154.491,218.442 154.543,215.892 155.712 M211.694 175.537 C 208.561 177.045,203.873 179.321,201.277 180.594 C 198.682 181.867,196.185 182.909,195.730 182.909 C 195.275 182.909,194.903 183.126,194.903 183.393 C 194.903 183.659,193.756 184.364,192.354 184.958 C 189.910 185.994,187.443 187.168,167.877 196.599 C 163.073 198.915,158.784 201.241,158.346 201.769 C 157.400 202.909,158.026 203.833,159.050 202.809 C 159.441 202.418,160.246 202.099,160.840 202.099 C 161.433 202.099,161.919 201.847,161.919 201.540 C 161.919 201.232,162.526 200.811,163.268 200.604 C 164.694 200.206,169.989 197.834,173.013 196.239 C 174.003 195.718,175.217 195.102,175.712 194.871 C 178.752 193.453,195.592 185.441,207.796 179.606 C 212.414 177.398,216.799 175.303,217.541 174.951 C 218.972 174.271,219.405 172.685,218.141 172.755 C 217.729 172.777,214.828 174.030,211.694 175.537 M201.499 195.246 C 200.015 196.016,198.396 196.792,197.901 196.970 C 197.406 197.148,196.597 197.523,196.102 197.804 C 195.607 198.085,194.663 198.579,194.003 198.901 C 193.343 199.224,191.994 199.923,191.004 200.455 C 190.015 200.986,188.058 201.896,186.657 202.475 C 184.100 203.533,183.193 205.110,185.157 205.083 C 186.676 205.062,205.876 195.344,206.159 194.453 C 206.515 193.329,204.548 193.664,201.499 195.246 " stroke="none" fill="#fefefe" fill-rule="evenodd"></path><path id="path3" d="M0.000 149.925 L 0.000 299.850 35.094 299.850 L 70.189 299.850 72.564 298.351 C 73.870 297.526,75.163 296.852,75.438 296.852 C 75.713 296.852,77.336 296.177,79.045 295.352 C 80.755 294.528,82.320 293.853,82.525 293.853 C 82.729 293.853,85.632 292.538,88.975 290.930 C 92.317 289.322,96.402 287.403,98.051 286.665 C 99.700 285.928,103.073 284.388,105.547 283.244 C 108.021 282.100,110.585 280.931,111.244 280.646 C 111.904 280.362,115.277 278.816,118.741 277.211 C 122.204 275.606,126.454 273.655,128.186 272.876 C 132.089 271.119,132.089 270.673,128.186 266.039 C 126.454 263.983,124.194 261.237,123.162 259.936 C 122.131 258.635,120.098 256.087,118.645 254.273 C 112.161 246.176,110.820 242.879,114.012 242.879 C 114.357 242.879,116.159 241.867,118.017 240.630 C 119.874 239.393,121.857 238.111,122.422 237.781 C 122.988 237.451,127.765 234.280,133.039 230.735 C 143.610 223.627,147.458 222.355,148.455 225.637 C 148.680 226.379,149.461 227.796,150.189 228.786 C 150.917 229.775,151.672 231.018,151.866 231.547 C 152.488 233.241,159.479 242.197,162.256 244.859 L 164.940 247.431 164.779 261.463 L 164.618 275.496 158.021 278.985 C 154.393 280.904,150.885 282.745,150.225 283.075 C 149.565 283.406,148.319 284.144,147.456 284.717 C 145.926 285.731,137.926 290.448,136.132 291.394 C 134.531 292.237,131.334 296.903,131.334 298.397 L 131.334 299.850 171.068 299.850 L 210.801 299.850 211.566 297.601 C 216.506 283.084,212.705 273.912,200.974 272.044 C 196.596 271.346,196.102 270.855,196.102 267.194 C 196.102 262.210,196.077 262.231,201.430 262.541 C 204.002 262.690,208.376 262.477,211.149 262.068 C 213.923 261.659,217.136 261.203,218.291 261.056 C 219.445 260.909,221.199 260.424,222.189 259.979 C 223.178 259.534,226.114 258.286,228.712 257.206 C 233.810 255.088,241.940 249.382,246.401 244.791 C 250.742 240.323,258.476 229.505,259.392 226.617 C 259.988 224.741,260.724 225.125,276.106 235.352 C 290.918 245.199,290.905 245.187,289.171 246.903 C 288.575 247.493,286.234 250.405,283.968 253.373 C 281.702 256.342,278.448 260.390,276.738 262.369 C 273.492 266.124,270.465 270.322,270.465 271.066 C 270.465 271.305,272.151 272.241,274.213 273.146 C 276.274 274.051,279.715 275.608,281.859 276.606 C 285.682 278.385,291.191 280.906,295.952 283.056 C 297.271 283.651,301.277 285.515,304.854 287.197 C 308.431 288.879,311.466 290.255,311.599 290.255 C 311.824 290.255,315.723 292.013,322.939 295.367 C 324.588 296.134,327.084 297.238,328.486 297.821 C 329.888 298.404,331.034 299.099,331.034 299.366 C 331.034 299.632,346.552 299.850,365.517 299.850 L 400.000 299.850 400.000 149.925 L 400.000 0.000 200.000 0.000 L 0.000 0.000 0.000 149.925 M257.019 3.931 C 271.620 7.317,274.658 13.026,278.861 44.978 C 279.230 47.781,279.901 52.234,280.351 54.873 C 280.802 57.511,281.481 61.964,281.861 64.768 C 282.241 67.571,282.924 72.159,283.378 74.963 C 283.832 77.766,284.637 82.894,285.167 86.357 C 285.696 89.820,286.383 93.630,286.693 94.822 C 287.003 96.015,287.283 98.174,287.315 99.620 C 287.466 106.388,289.011 109.720,293.164 112.236 C 295.258 113.505,297.126 114.543,297.314 114.543 C 297.503 114.543,298.083 114.922,298.603 115.386 C 300.969 117.491,323.901 130.135,325.355 130.135 C 325.571 130.135,326.382 130.634,327.158 131.244 C 328.966 132.667,321.905 133.133,298.586 133.133 C 290.078 133.133,281.822 133.409,280.239 133.747 C 276.447 134.554,234.475 135.422,233.243 134.718 C 232.726 134.423,231.650 133.227,230.851 132.062 C 226.920 126.325,215.876 116.913,209.348 113.735 C 206.186 112.195,206.523 112.965,209.726 114.596 C 223.246 121.485,235.748 136.668,240.049 151.424 C 246.627 173.990,239.987 198.715,223.187 214.217 C 214.793 221.962,201.836 229.085,196.144 229.085 C 195.593 229.085,194.886 229.338,194.573 229.647 C 194.259 229.956,192.789 230.294,191.304 230.397 L 188.606 230.585 188.606 237.181 L 188.606 243.778 191.451 243.961 C 195.472 244.219,195.554 244.520,195.365 258.305 L 195.202 270.165 184.708 270.477 C 177.699 270.685,173.615 271.061,172.414 271.610 C 164.968 275.013,165.517 276.016,165.517 259.020 L 165.517 244.648 167.140 244.031 C 168.033 243.692,169.450 243.486,170.289 243.574 C 173.026 243.861,173.313 243.229,173.313 236.910 C 173.313 230.423,173.232 230.285,169.394 230.285 C 168.283 230.285,166.753 230.033,165.995 229.726 C 165.238 229.418,162.999 228.692,161.019 228.113 C 134.863 220.451,117.124 194.739,118.283 166.168 C 118.561 159.295,118.912 157.306,121.248 149.325 C 122.262 145.860,125.331 139.623,127.592 136.432 C 129.243 134.102,129.357 133.801,128.102 135.082 C 126.643 136.573,126.073 136.734,122.165 136.757 C 119.787 136.771,114.468 136.900,110.345 137.044 C 91.683 137.694,76.173 137.835,75.879 137.358 C 75.702 137.072,77.189 135.666,79.184 134.236 C 83.305 131.280,99.081 119.181,106.425 113.343 C 109.123 111.199,113.004 108.115,115.051 106.488 C 117.098 104.862,118.878 102.973,119.006 102.290 C 119.594 99.180,120.555 82.942,120.548 76.260 C 120.543 72.192,120.800 63.691,121.118 57.370 C 121.436 51.049,121.813 42.700,121.955 38.817 C 122.098 34.934,122.475 31.426,122.794 31.021 C 123.112 30.616,123.552 29.536,123.771 28.620 C 125.647 20.768,133.391 10.340,139.682 7.194 C 142.698 5.686,156.717 5.686,179.010 7.194 C 192.689 8.119,219.107 7.644,227.886 6.314 C 236.244 5.048,241.987 4.155,245.277 3.608 C 249.739 2.866,252.788 2.950,257.019 3.931 M171.214 107.279 C 170.544 107.554,173.323 107.654,177.511 107.507 C 184.488 107.262,193.343 108.162,197.001 109.487 C 197.853 109.796,198.027 109.731,197.601 109.265 C 196.086 107.606,174.400 105.974,171.214 107.279 M164.018 108.920 L 162.219 109.797 164.018 109.387 C 165.007 109.161,166.762 108.776,167.916 108.530 L 170.015 108.084 167.916 108.064 C 166.762 108.053,165.007 108.438,164.018 108.920 M158.921 110.297 C 158.426 110.561,155.535 111.962,152.497 113.410 C 149.458 114.858,146.836 116.377,146.670 116.786 C 146.505 117.195,147.371 116.911,148.597 116.155 C 150.632 114.899,153.957 113.258,159.520 110.763 C 160.675 110.245,161.214 109.820,160.720 109.819 C 160.225 109.817,159.415 110.032,158.921 110.297 M199.100 109.989 C 199.100 110.123,200.247 110.634,201.649 111.125 C 203.051 111.615,204.714 112.226,205.346 112.482 C 206.094 112.786,206.358 112.728,206.104 112.318 C 205.576 111.462,199.100 109.309,199.100 109.989 M142.325 119.713 C 137.464 123.361,128.965 132.163,129.646 132.844 C 129.793 132.991,131.452 131.264,133.332 129.006 C 135.213 126.748,138.261 123.717,140.104 122.270 C 145.637 117.929,146.044 117.582,145.623 117.561 C 145.401 117.550,143.917 118.519,142.325 119.713 M170.015 121.419 C 157.351 124.572,148.250 130.616,141.085 140.630 C 118.004 172.887,140.777 217.691,180.253 217.691 C 188.517 217.691,194.737 216.224,202.546 212.433 C 208.866 209.365,216.588 202.961,215.182 201.953 C 214.584 201.524,214.631 201.462,215.373 201.697 C 216.395 202.022,218.080 200.456,220.752 196.702 C 222.016 194.925,223.241 192.591,226.134 186.445 C 234.701 168.245,224.203 137.319,206.185 127.676 C 203.876 126.440,205.260 127.802,208.661 130.111 C 211.783 132.232,214.095 134.533,214.092 135.516 C 214.089 136.250,190.768 135.830,190.018 135.082 C 189.162 134.230,185.238 134.069,184.378 134.851 C 182.666 136.408,146.402 137.334,145.953 135.832 C 145.678 134.914,153.557 128.896,158.140 126.525 C 167.810 121.520,177.708 120.154,191.004 121.990 C 192.804 122.238,192.580 122.105,190.105 121.456 C 186.051 120.392,174.224 120.371,170.015 121.419 M194.903 123.238 C 195.727 123.710,196.942 124.094,197.601 124.093 C 198.429 124.092,198.176 123.820,196.783 123.215 C 194.209 122.097,192.935 122.113,194.903 123.238 M199.100 124.377 C 199.100 124.692,203.808 127.142,204.366 127.118 C 204.604 127.107,203.718 126.434,202.399 125.622 C 200.131 124.225,199.100 123.836,199.100 124.377 M188.797 136.221 C 188.571 137.744,189.078 137.439,178.111 142.655 C 173.328 144.930,165.907 148.471,161.619 150.525 C 147.420 157.326,146.520 157.721,145.219 157.721 C 144.243 157.721,143.928 157.357,143.928 156.228 C 143.928 154.897,144.918 154.255,153.073 150.294 C 165.070 144.469,177.228 138.744,184.108 135.681 C 186.795 134.485,189.018 134.740,188.797 136.221 M205.704 145.140 C 206.628 146.866,206.190 147.281,200.705 149.874 C 198.008 151.149,192.159 153.936,187.706 156.068 C 183.253 158.201,177.451 160.964,174.813 162.209 C 170.506 164.242,156.234 171.099,148.458 174.872 C 145.035 176.534,143.764 176.660,142.750 175.439 C 141.434 173.852,142.335 173.330,164.018 163.125 C 171.459 159.623,183.297 153.873,194.003 148.561 C 203.950 143.625,204.766 143.387,205.704 145.140 M219.427 154.347 C 220.638 155.806,219.471 157.047,214.784 159.286 C 212.260 160.491,205.337 163.831,199.400 166.709 C 193.463 169.587,187.391 172.497,185.907 173.177 C 184.423 173.858,179.430 176.222,174.813 178.431 C 170.195 180.641,163.583 183.796,160.120 185.442 C 156.657 187.088,152.214 189.231,150.247 190.203 C 146.631 191.990,143.928 192.111,143.928 190.486 C 143.928 189.260,145.603 188.076,150.825 185.615 C 153.463 184.371,159.535 181.460,164.318 179.145 C 172.193 175.333,180.542 171.348,195.736 164.146 C 198.668 162.756,204.740 159.816,209.229 157.612 C 218.148 153.233,218.428 153.143,219.427 154.347 M219.399 172.045 C 221.142 173.149,219.764 174.824,215.291 177.041 C 210.963 179.186,195.250 186.718,185.907 191.126 C 183.433 192.293,178.441 194.668,174.813 196.403 C 157.303 204.778,156.926 204.909,156.366 202.768 C 156.116 201.811,157.657 199.700,158.606 199.700 C 158.755 199.700,161.923 198.251,165.646 196.480 C 169.368 194.709,175.112 191.986,178.411 190.430 C 192.831 183.623,215.459 172.746,216.492 172.125 C 217.649 171.430,218.396 171.409,219.399 172.045 M207.196 194.485 C 207.196 195.682,206.662 196.001,195.007 201.753 C 185.932 206.232,182.558 206.867,183.320 203.953 C 183.589 202.926,184.983 202.159,198.201 195.769 C 203.975 192.978,207.196 192.518,207.196 194.485 " stroke="none" fill="#1d9efc" fill-rule="evenodd"></path></g></svg>